<svg xmlns="http://www.w3.org/2000/svg" xmlns:xlink="http://www.w3.org/1999/xlink" fill="currentColor" version="1.1" x="0px" y="0px" viewBox="0 0 100 100" style="enable-background:new 0 0 100 100;" xml:space="preserve">
    <path d="M50,26.2c-7.97,0-14.46,6.48-14.46,14.46h4.52c0-5.48,4.46-9.93,9.93-9.93c2.65,0,5.14,1.03,7.02,2.91  c1.88,1.88,2.91,4.37,2.91,7.02c0,3.16-1.45,6.06-3.98,7.96c-2.52,1.89-4.61,4.36-6.02,7.14c-1.43,2.81-2.19,5.96-2.19,9.09v0.02  h4.52v-0.02c0-4.9,2.39-9.61,6.4-12.62c1.76-1.32,3.22-3.05,4.22-5c1.03-2.02,1.58-4.29,1.58-6.58c0-3.86-1.5-7.49-4.24-10.22  C57.49,27.7,53.86,26.2,50,26.2z"/>
    <rect x="47.73" y="67" width="4.54" height="4.54"/>
    <path d="M80.05,19.95c-3.9-3.9-8.45-6.97-13.51-9.11C61.3,8.62,55.74,7.5,50,7.5s-11.3,1.12-16.54,3.34  c-5.06,2.14-9.61,5.2-13.51,9.11c-3.9,3.9-6.97,8.45-9.11,13.51C8.62,38.7,7.5,44.26,7.5,50s1.12,11.3,3.34,16.54  c2.14,5.06,5.2,9.61,9.11,13.51c3.9,3.9,8.45,6.97,13.51,9.11C38.7,91.38,44.26,92.5,50,92.5s11.3-1.12,16.54-3.34  c5.06-2.14,9.61-5.2,13.51-9.11s6.97-8.45,9.11-13.51C91.38,61.3,92.5,55.74,92.5,50s-1.12-11.3-3.34-16.54  C87.02,28.4,83.95,23.85,80.05,19.95z M50,87.98c-20.94,0-37.98-17.04-37.98-37.98S29.06,12.02,50,12.02  c20.94,0,37.98,17.04,37.98,37.98S70.94,87.98,50,87.98z"/>
</svg>