<?xml version="1.0" encoding="UTF-8"?>
<!DOCTYPE svg PUBLIC "-//W3C//DTD SVG 1.1//EN" "http://www.w3.org/Graphics/SVG/1.1/DTD/svg11.dtd">
<!-- Creator: CorelDRAW -->
<?xml version="1.0" encoding="UTF-8"?>
<!DOCTYPE svg PUBLIC "-//W3C//DTD SVG 1.1//EN" "http://www.w3.org/Graphics/SVG/1.1/DTD/svg11.dtd">
<!-- Creator: CorelDRAW -->
<svg xmlns="http://www.w3.org/2000/svg" viewBox="0 0 58 59" fill="none">
<path d="M12.9402 34.6879C15.5675 34.6833 18.0857 33.6368 19.9424 31.7778C21.799 29.9189 22.8424 27.3994 22.8437 24.7721C22.8495 23.1094 22.433 21.4726 21.6333 20.0148C20.8336 18.5571 19.6769 17.3263 18.2716 16.4378C18.119 16.3411 17.9976 16.2024 17.9219 16.0384C17.8462 15.8744 17.8195 15.692 17.8448 15.5132C17.8702 15.3344 17.9466 15.1666 18.0649 15.0302C18.1832 14.8937 18.3384 14.7942 18.5118 14.7438C23.578 13.3196 28.8546 12.7949 34.102 13.1935C40.5789 13.7246 46.8846 15.543 52.6498 18.542C52.9191 18.6928 53.2268 18.7607 53.5345 18.7374C53.8422 18.714 54.1362 18.6004 54.3796 18.4107C54.623 18.221 54.805 17.9637 54.9028 17.671C55.0007 17.3784 55.0099 17.0634 54.9295 16.7654C54.8785 16.5656 54.7864 16.3786 54.659 16.2164C54.5316 16.0542 54.3718 15.9203 54.1898 15.8234C48.0569 12.5165 41.2908 10.5518 34.3405 10.0597C33.2389 10.0053 32.1568 9.97802 31.0943 9.97781C21.5881 9.97781 13.6653 12.1627 7.50793 16.4885C6.25456 17.3232 5.20414 18.428 4.43387 19.722C3.66359 21.0159 3.19305 22.466 3.05682 23.9657C3.03482 24.2353 3.02402 24.5041 3.02442 24.772C3.02733 27.401 4.07295 29.9214 5.93188 31.7803C7.79081 33.6393 10.3112 34.6849 12.9402 34.6879ZM9.14317 19.1637C10.2608 18.3981 11.5854 17.9916 12.9402 17.9985C14.5679 17.9967 16.1421 18.5794 17.3764 19.6406C18.6106 20.7018 19.4228 22.1709 19.6651 23.7804C19.9074 25.39 19.5638 27.0331 18.6966 28.4106C17.8295 29.7882 16.4966 30.8085 14.9405 31.2861C13.3844 31.7636 11.7086 31.6665 10.2181 31.0125C8.72752 30.3585 7.52135 29.191 6.81909 27.7226C6.11683 26.2542 5.96517 24.5824 6.39171 23.0116C6.81826 21.4407 7.79465 20.0753 9.14317 19.1637ZM45.0669 23.6105C42.4396 23.6151 39.9214 24.6616 38.0647 26.5205C36.2081 28.3795 35.1646 30.899 35.1633 33.5263C35.1575 35.189 35.5739 36.8259 36.3736 38.2837C37.1733 39.7414 38.3301 40.9722 39.7355 41.8606C39.888 41.9573 40.0094 42.096 40.0851 42.26C40.1608 42.424 40.1876 42.6064 40.1623 42.7852C40.1369 42.964 40.0605 43.1317 39.9422 43.2682C39.8238 43.4047 39.6687 43.5042 39.4952 43.5546C34.4288 44.9773 29.1524 45.502 23.905 45.1049C17.4282 44.5738 11.1224 42.7555 5.3572 39.7564C5.11885 39.6291 4.8529 39.5621 4.58266 39.5614C4.32013 39.5602 4.06163 39.6259 3.83155 39.7523C3.60147 39.8788 3.4074 40.0617 3.26767 40.284C3.15222 40.4681 3.07577 40.6739 3.04306 40.8888C3.01036 41.1036 3.02208 41.3228 3.07752 41.533C3.12854 41.7328 3.22067 41.9198 3.34804 42.082C3.47541 42.2442 3.6352 42.3781 3.81722 42.475C9.95002 45.7822 16.7162 47.7469 23.6665 48.2387C34.6247 48.7772 43.6546 46.6192 50.4991 41.8099C51.7525 40.9752 52.8029 39.8704 53.5732 38.5764C54.3435 37.2825 54.814 35.8324 54.9502 34.3327C54.9722 34.0637 54.983 33.795 54.9826 33.5264C54.9797 30.8974 53.9341 28.377 52.0752 26.5181C50.2162 24.6591 47.6958 23.6135 45.0669 23.6105H45.0669ZM48.8639 39.1347C47.7463 39.9003 46.4217 40.3068 45.0669 40.2999C43.4392 40.3017 41.865 39.7189 40.6308 38.6578C39.3965 37.5966 38.5844 36.1275 38.342 34.518C38.0997 32.9084 38.4434 31.2653 39.3105 29.8878C40.1776 28.5103 41.5105 27.49 43.0666 27.0124C44.6227 26.5349 46.2985 26.632 47.789 27.286C49.2796 27.94 50.4857 29.1075 51.188 30.5759C51.8902 32.0443 52.0419 33.7161 51.6153 35.2869C51.1888 36.8577 50.2124 38.2232 48.8639 39.1347Z" fill="currentColor"/>
</svg>

