<?xml version="1.0" encoding="UTF-8"?>
<!DOCTYPE svg PUBLIC "-//W3C//DTD SVG 1.1//EN" "http://www.w3.org/Graphics/SVG/1.1/DTD/svg11.dtd">
<!-- Creator: CorelDRAW -->
<svg xmlns="http://www.w3.org/2000/svg" viewBox="0 0 59 59" fill="none">
<path d="M25.9624 6.96775C26.2205 6.9677 26.4784 6.98076 26.7352 7.00687C28.6765 7.26058 30.4572 8.21769 31.7399 9.69679C33.0226 11.1759 33.7181 13.0742 33.6946 15.0319L33.7056 42.416C33.7261 43.9766 33.4792 45.5292 32.9757 47.0065C32.375 48.321 31.5159 49.5011 30.4494 50.4764C29.3829 51.4517 28.131 52.2023 26.7682 52.6833C26.4316 52.7755 26.1337 52.9735 25.9183 53.2481C25.703 53.5226 25.5817 53.8592 25.5724 54.208C25.5719 54.454 25.6288 54.6966 25.7385 54.9167C25.8483 55.1368 26.0078 55.3283 26.2045 55.4759C26.3949 55.6219 26.6167 55.7215 26.8522 55.7668C27.0878 55.8121 27.3307 55.8019 27.5617 55.7369C30.6815 54.8105 33.352 52.7696 35.0652 50.0026C35.1296 49.8791 35.2206 49.7715 35.3316 49.6876C35.4427 49.6036 35.571 49.5454 35.7074 49.5171C35.8437 49.4889 35.9846 49.4913 36.1199 49.5242C36.2552 49.5571 36.3815 49.6196 36.4896 49.7073C38.1857 51.0551 40.2924 51.7809 42.4587 51.7639C47.2907 51.7639 51.2227 48.3495 51.2227 44.1521C51.2227 39.9614 47.2747 36.552 42.4207 36.552C40.9526 36.5426 39.5022 36.873 38.183 37.5173C38.0398 37.5889 37.8808 37.6228 37.7209 37.6156C37.561 37.6084 37.4056 37.5604 37.2695 37.4762C37.1333 37.3921 37.021 37.2745 36.9431 37.1346C36.8653 36.9948 36.8244 36.8374 36.8246 36.6773V15.1407C36.8652 12.3533 35.8617 9.65156 34.0115 7.56646C32.1613 5.48137 29.598 4.16373 26.8256 3.87255C25.0159 3.72713 23.1986 4.03842 21.5405 4.77788C19.8823 5.51734 18.4364 6.66129 17.3352 8.10482C17.2439 8.21299 17.1301 8.29992 17.0017 8.35955C16.8733 8.41918 16.7334 8.45007 16.5919 8.45007C16.4503 8.45007 16.3104 8.41918 16.182 8.35955C16.0536 8.29992 15.9398 8.21299 15.8485 8.10482C14.3986 6.22503 12.3805 4.86352 10.0946 4.22285C9.8674 4.1587 9.62833 4.14856 9.3965 4.19325C9.16467 4.23794 8.9465 4.33621 8.75941 4.48022C8.57414 4.62011 8.42399 4.80121 8.32085 5.00919C8.21772 5.21716 8.16443 5.4463 8.1652 5.67844C8.16011 6.03909 8.27541 6.39115 8.49287 6.67891C8.71033 6.96667 9.01752 7.17372 9.36586 7.26729C10.9799 7.73712 12.3985 8.71659 13.4098 10.0593C14.4211 11.4021 14.9708 13.036 14.9767 14.717V37.5039C14.9779 37.9315 15.1485 38.3412 15.4513 38.6431C15.7541 38.9451 16.1642 39.1146 16.5918 39.1146C17.0194 39.1146 17.4296 38.9451 17.7324 38.6431C18.0351 38.3412 18.2058 37.9315 18.207 37.5039V14.717C18.2079 12.661 19.0255 10.6896 20.4799 9.23632C21.9343 7.78307 23.9064 6.96705 25.9624 6.96775H25.9624ZM42.4587 48.6339C39.3519 48.6339 36.8246 46.6232 36.8246 44.1521C36.8617 43.4596 37.0669 42.7864 37.4225 42.1909C37.778 41.5954 38.2732 41.0954 38.8653 40.7342C39.9182 40.0351 41.157 39.6685 42.4208 39.6821C45.5129 39.6821 48.0927 41.7288 48.0927 44.1522C48.0927 46.6232 45.5655 48.6339 42.4587 48.6339Z" fill="currentColor"/>
</svg>
