<svg xmlns="http://www.w3.org/2000/svg" viewBox="0 0 25 25" fill="none">
<path d="M19.9111 9.42749C19.9111 7.57097 19.1736 5.7905 17.8609 4.47774C16.5481 3.16499 14.7676 2.42749 12.9111 2.42749C11.0546 2.42749 9.27414 3.16499 7.96139 4.47774C6.64863 5.7905 5.91113 7.57097 5.91113 9.42749C5.91113 9.69271 6.01649 9.94706 6.20403 10.1346C6.39156 10.3221 6.64592 10.4275 6.91113 10.4275C7.17635 10.4275 7.4307 10.3221 7.61824 10.1346C7.80578 9.94706 7.91113 9.69271 7.91113 9.42749C7.91113 8.43858 8.20438 7.47188 8.75378 6.64964C9.30319 5.82739 10.0841 5.18653 10.9977 4.80809C11.9113 4.42965 12.9167 4.33064 13.8866 4.52356C14.8565 4.71649 15.7474 5.19269 16.4467 5.89196C17.1459 6.59122 17.6221 7.48213 17.8151 8.45204C18.008 9.42194 17.909 10.4273 17.5305 11.3409C17.1521 12.2545 16.5112 13.0354 15.689 13.5848C14.8667 14.1342 13.9 14.4275 12.9111 14.4275C12.6459 14.4275 12.3916 14.5328 12.204 14.7204C12.0165 14.9079 11.9111 15.1623 11.9111 15.4275V17.4275H10.9111C10.6459 17.4275 10.3916 17.5328 10.204 17.7204C10.0165 17.9079 9.91113 18.1623 9.91113 18.4275C9.91113 18.6927 10.0165 18.9471 10.204 19.1346C10.3916 19.3221 10.6459 19.4275 10.9111 19.4275H11.9111V21.4275C11.9111 21.6927 12.0165 21.9471 12.204 22.1346C12.3916 22.3221 12.6459 22.4275 12.9111 22.4275C13.1763 22.4275 13.4307 22.3221 13.6182 22.1346C13.8058 21.9471 13.9111 21.6927 13.9111 21.4275V19.4275H14.9111C15.1763 19.4275 15.4307 19.3221 15.6182 19.1346C15.8058 18.9471 15.9111 18.6927 15.9111 18.4275C15.9111 18.1623 15.8058 17.9079 15.6182 17.7204C15.4307 17.5328 15.1763 17.4275 14.9111 17.4275H13.9111V16.3475C15.5757 16.1072 17.0982 15.2757 18.2 14.005C19.3017 12.7343 19.9092 11.1093 19.9111 9.42749Z" fill="currentColor"/>
</svg>