
<svg xmlns="http://www.w3.org/2000/svg" xmlns:xlink="http://www.w3.org/1999/xlink" viewBox="0 0 26 26" version="1.1">
    <g stroke="none" stroke-width="1" fill="none" fill-rule="evenodd">
        <path d="M16.5,26.5 C10.7010101,26.5 6,21.7989899 6,16 C6,10.2010101 10.7010101,5.5 16.5,5.5 C22.2989899,5.5 27,10.2010101 27,16 C27,21.7989899 22.2989899,26.5 16.5,26.5 Z M16.5,24.5 C21.1944204,24.5 25,20.6944204 25,16 C25,11.3055796 21.1944204,7.5 16.5,7.5 C11.8055796,7.5 8,11.3055796 8,16 C8,20.6944204 11.8055796,24.5 16.5,24.5 Z M17.7661133,14.5571289 L17.7661133,21.1064453 C17.7661133,21.5602236 17.6708761,21.9033192 17.480399,22.1357422 C17.2899219,22.3681652 17.048166,22.484375 16.7551243,22.484375 C16.4620825,22.484375 16.2239897,22.3653983 16.0408386,22.1274414 C15.8576875,21.8894845 15.7661133,21.5491559 15.7661133,21.1064453 L15.7661133,14.6235352 C15.7661133,14.1752907 15.8576875,13.837729 16.0408386,13.6108398 C16.2239897,13.3839507 16.4620825,13.2705078 16.7551243,13.2705078 C17.048166,13.2705078 17.2899219,13.3839507 17.480399,13.6108398 C17.6708761,13.837729 17.7661133,14.1531555 17.7661133,14.5571289 Z M16.6455078,12.2163086 C16.3300765,12.2163086 16.0603039,12.1194671 15.8361816,11.9257812 C15.6120594,11.7320954 15.5,11.4581723 15.5,11.1040039 C15.5,10.7830388 15.6148263,10.5187999 15.8444824,10.3112793 C16.0741385,10.1037587 16.3411443,10 16.6455078,10 C16.9388035,10 17.1988921,10.0940746 17.4257812,10.2822266 C17.6526704,10.4703785 17.7661133,10.7443016 17.7661133,11.1040039 C17.7661133,11.4526385 17.6554373,11.7251781 17.434082,11.9216309 C17.2127268,12.1180837 16.9498713,12.2163086 16.6455078,12.2163086 Z" fill="currentColor" fill-rule="nonzero"/>
    </g>
</svg>