<?xml version="1.0" encoding="UTF-8"?>
<!DOCTYPE svg PUBLIC "-//W3C//DTD SVG 1.1//EN" "http://www.w3.org/Graphics/SVG/1.1/DTD/svg11.dtd">
<!-- Creator: CorelDRAW -->
<svg xmlns="http://www.w3.org/2000/svg" viewBox="0 0 59 59" fill="none">
<path d="M55.4432 47.5984C55.4428 48.0134 55.2778 48.4112 54.9844 48.7046C54.691 48.998 54.2931 49.163 53.8782 49.1634H5.04982C4.84393 49.164 4.63996 49.124 4.44958 49.0456C4.25921 48.9672 4.08617 48.852 3.94038 48.7066C3.7946 48.5612 3.67893 48.3885 3.60001 48.1983C3.52109 48.0082 3.48047 47.8043 3.48047 47.5984C3.48047 47.3926 3.52109 47.1887 3.60001 46.9985C3.67893 46.8084 3.7946 46.6357 3.94038 46.4903C4.08617 46.3449 4.25921 46.2297 4.44958 46.1513C4.63996 46.0729 4.84393 46.0329 5.04982 46.0334H53.8782C54.2931 46.0338 54.6909 46.1988 54.9844 46.4923C55.2778 46.7857 55.4428 47.1835 55.4432 47.5984ZM5.04982 39.1474H21.952C22.3671 39.1474 22.7651 38.9825 23.0586 38.689C23.3521 38.3955 23.517 37.9975 23.517 37.5824C23.517 37.1673 23.3521 36.7692 23.0586 36.4757C22.7651 36.1822 22.3671 36.0173 21.952 36.0173H20.2243C20.0993 36.0174 19.9755 35.9924 19.8602 35.944C19.7449 35.8955 19.6405 35.8244 19.5531 35.735C17.6507 33.7852 16.3658 31.3175 15.859 28.641C15.3523 25.9645 15.6463 23.1979 16.7042 20.6877C17.7622 18.1774 19.5371 16.035 21.8067 14.5286C24.0763 13.0221 26.7399 12.2186 29.464 12.2186C32.1881 12.2186 34.8516 13.0221 37.1213 14.5286C39.3909 16.035 41.1658 18.1774 42.2237 20.6877C43.2817 23.1979 43.5757 25.9645 43.069 28.641C42.5622 31.3175 41.2773 33.7852 39.3749 35.735C39.2875 35.8244 39.1831 35.8955 39.0678 35.944C38.9525 35.9924 38.8287 36.0174 38.7037 36.0173H36.976C36.561 36.0173 36.1629 36.1822 35.8694 36.4757C35.5759 36.7692 35.411 37.1673 35.411 37.5824C35.411 37.9975 35.5759 38.3955 35.8694 38.689C36.1629 38.9825 36.561 39.1474 36.976 39.1474H53.8782C54.0943 39.1478 54.3081 39.1034 54.5062 39.017C54.7043 38.9306 54.8823 38.8041 55.029 38.6454C55.1757 38.4867 55.2879 38.2994 55.3586 38.0952C55.4292 37.8909 55.4568 37.6743 55.4395 37.4589C55.389 37.0543 55.19 36.6828 54.8812 36.4165C54.5725 36.1502 54.1758 36.0079 53.7682 36.0173H44.9514C44.7862 36.0172 44.6239 35.9735 44.4809 35.8907C44.3379 35.8078 44.2193 35.6886 44.1371 35.5453C44.0549 35.4019 44.0119 35.2394 44.0126 35.0741C44.0132 34.9089 44.0575 34.7467 44.1408 34.604C45.6612 31.999 46.4554 29.034 46.4407 26.0178C46.3831 21.6887 44.6908 17.5415 41.7031 14.4081C38.7155 11.2746 34.6536 9.38671 30.3321 9.12308C27.279 8.96907 24.2409 9.64171 21.5382 11.0701C18.8355 12.4984 16.5682 14.6296 14.9754 17.2388C13.3827 19.8481 12.5235 22.8388 12.4884 25.8955C12.4533 28.9523 13.2437 31.9619 14.7761 34.607C14.8592 34.7497 14.9031 34.9117 14.9034 35.0768C14.9038 35.2418 14.8607 35.4041 14.7783 35.5471C14.696 35.6902 14.5774 35.809 14.4344 35.8915C14.2915 35.9741 14.1294 36.0175 13.9643 36.0173H5.04982C4.63613 36.0218 4.24066 36.1882 3.94813 36.4807C3.6556 36.7733 3.48929 37.1688 3.48482 37.5824C3.48521 37.9974 3.65022 38.3952 3.94363 38.6886C4.23704 38.982 4.63487 39.147 5.04982 39.1474Z" fill="currentColor"/>
</svg>
