<svg xmlns="http://www.w3.org/2000/svg" viewBox="0 0 26 26" fill="none">
<path d="M23.5701 2.80835C23.461 2.54567 23.2523 2.33693 22.9896 2.22785C22.8604 2.17276 22.7216 2.14354 22.5811 2.14185H17.2061C16.921 2.14185 16.6476 2.2551 16.446 2.45671C16.2444 2.65831 16.1311 2.93174 16.1311 3.21685C16.1311 3.50195 16.2444 3.77538 16.446 3.97699C16.6476 4.17859 16.921 4.29185 17.2061 4.29185H19.9904L16.0236 8.2586C14.5213 7.07934 12.666 6.43947 10.7561 6.44185C9.05521 6.44185 7.39249 6.94623 5.97823 7.89121C4.56397 8.83619 3.46168 10.1793 2.81077 11.7508C2.15985 13.3222 1.98955 15.0514 2.32138 16.7196C2.65321 18.3879 3.47228 19.9202 4.67501 21.123C5.87775 22.3257 7.41012 23.1448 9.07836 23.4766C10.7466 23.8084 12.4758 23.6381 14.0472 22.9872C15.6187 22.3363 16.9618 21.234 17.9068 19.8198C18.8518 18.4055 19.3561 16.7428 19.3561 15.0418C19.3585 13.1319 18.7186 11.2767 17.5394 9.77435L21.5061 5.8076V8.59185C21.5061 8.87695 21.6194 9.15038 21.821 9.35199C22.0226 9.55359 22.296 9.66685 22.5811 9.66685C22.8662 9.66685 23.1397 9.55359 23.3413 9.35199C23.5429 9.15038 23.6561 8.87695 23.6561 8.59185V3.21685C23.6544 3.07637 23.6252 2.93758 23.5701 2.80835ZM10.7561 21.4918C9.48044 21.4918 8.2334 21.1136 7.1727 20.4048C6.11201 19.6961 5.28529 18.6887 4.79711 17.5102C4.30892 16.3316 4.18119 15.0347 4.43007 13.7835C4.67894 12.5323 5.29324 11.3831 6.19529 10.481C7.09734 9.57896 8.24662 8.96466 9.4978 8.71578C10.749 8.46691 12.0459 8.59464 13.2244 9.08282C14.403 9.57101 15.4104 10.3977 16.1191 11.4584C16.8278 12.5191 17.2061 13.7662 17.2061 15.0418C17.2061 16.7525 16.5266 18.3931 15.317 19.6027C14.1074 20.8123 12.4668 21.4918 10.7561 21.4918Z" fill="currentColor"/>
</svg>