<svg xmlns="http://www.w3.org/2000/svg" viewBox="0 0 31 31" fill="none">
<g clip-path="url(#clip0_2_246)">
<path d="M7.44288 6.06972C7.21489 6.27028 7.06762 6.54694 7.02854 6.84812C6.98946 7.1493 7.06122 7.45446 7.23046 7.70671C7.39053 7.95835 7.63517 8.1446 7.92032 8.23191C8.20546 8.31922 8.51238 8.30185 8.78578 8.18294C9.94204 7.69406 11.2101 7.5308 12.4527 7.71082C13.6952 7.89083 14.865 8.40728 15.8354 9.20425C16.8058 10.0012 17.5399 11.0484 17.9582 12.2324C18.3764 13.4164 18.463 14.6921 18.2084 15.9215C17.9538 17.1509 17.3679 18.2872 16.5139 19.2073C15.66 20.1275 14.5706 20.7964 13.3637 21.1418C12.1567 21.4872 10.8782 21.4958 9.66646 21.1668C8.45473 20.8377 7.35595 20.1836 6.48904 19.2751C6.3068 18.9976 6.02182 18.8038 5.69679 18.7364C5.37176 18.669 5.03331 18.7335 4.75589 18.9156C4.47847 19.0978 4.28481 19.3827 4.21751 19.7077C4.15021 20.0328 4.21478 20.3713 4.39703 20.6488C4.6649 21.2074 4.97333 21.7456 5.31985 22.2591C6.67889 24.3285 8.62088 25.9486 10.9003 26.9146C13.1796 27.8805 15.694 28.1489 18.1254 27.6858C20.5568 27.2227 22.7961 26.0489 24.56 24.3128C26.3239 22.5767 27.5333 20.3564 28.0351 17.9326C28.537 15.5087 28.3089 12.9902 27.3796 10.6955C26.4502 8.40088 24.8615 6.43312 22.8142 5.0411C20.7669 3.64907 18.3531 2.8953 15.8779 2.87511C13.4027 2.85491 10.9773 3.5692 8.90852 4.92764C8.39268 5.27195 7.90282 5.65367 7.44288 6.06972ZM24.148 9.896C25.4106 11.8134 25.9762 14.1063 25.7501 16.3906C25.524 18.6749 24.5199 20.8118 22.906 22.4435C21.2921 24.0753 19.1664 25.1027 16.8849 25.3537C14.6034 25.6048 12.3047 25.0642 10.3737 23.8225C12.711 24.1077 15.0698 23.504 16.9824 22.1311C18.8949 20.7583 20.2214 18.7166 20.6988 16.4109C21.1762 14.1053 20.7696 11.7041 19.5597 9.68367C18.3498 7.66321 16.425 6.17105 14.1669 5.50311C16.0768 5.19255 18.036 5.44218 19.8074 6.2218C21.5787 7.00142 23.0864 8.27762 24.148 9.896Z" fill="currentColor"/>
</g>
<defs>
<clipPath id="clip0_2_246">
<rect width="30.0802" height="30.0802" fill="white" transform="translate(0.739258 0.351379)"/>
</clipPath>
</defs>
</svg>