<?xml version="1.0" encoding="UTF-8"?>
<!DOCTYPE svg PUBLIC "-//W3C//DTD SVG 1.1//EN" "http://www.w3.org/Graphics/SVG/1.1/DTD/svg11.dtd">

<svg xmlns="http://www.w3.org/2000/svg" viewBox="0 0 25 24" fill="none">
<path d="M21.9058 6.99591C21.9058 6.73069 21.8004 6.47634 21.6129 6.2888C21.4253 6.10127 21.171 5.99591 20.9058 5.99591C20.6405 5.99591 20.3862 6.10127 20.1986 6.2888C20.0111 6.47634 19.9058 6.73069 19.9058 6.99591C19.9058 8.85243 19.1683 10.6329 17.8555 11.9457C16.5428 13.2584 14.7623 13.9959 12.9058 13.9959C11.0492 13.9959 9.26877 13.2584 7.95601 11.9457C6.64326 10.6329 5.90576 8.85243 5.90576 6.99591C5.90576 6.73069 5.8004 6.47634 5.61287 6.2888C5.42533 6.10127 5.17098 5.99591 4.90576 5.99591C4.64055 5.99591 4.38619 6.10127 4.19865 6.2888C4.01112 6.47634 3.90576 6.73069 3.90576 6.99591C3.90681 9.20897 4.72322 11.3441 6.19898 12.9932C7.67475 14.6424 9.7064 15.69 11.9058 15.9359V16.9959H10.9058C10.6405 16.9959 10.3862 17.1013 10.1987 17.2888C10.0111 17.4763 9.90576 17.7307 9.90576 17.9959C9.90576 18.2611 10.0111 18.5155 10.1987 18.703C10.3862 18.8905 10.6405 18.9959 10.9058 18.9959H11.9058V20.9959C11.9058 21.2611 12.0111 21.5155 12.1987 21.703C12.3862 21.8905 12.6405 21.9959 12.9058 21.9959C13.171 21.9959 13.4253 21.8905 13.6129 21.703C13.8004 21.5155 13.9058 21.2611 13.9058 20.9959V18.9959H14.9058C15.171 18.9959 15.4253 18.8905 15.6129 18.703C15.8004 18.5155 15.9058 18.2611 15.9058 17.9959C15.9058 17.7307 15.8004 17.4763 15.6129 17.2888C15.4253 17.1013 15.171 16.9959 14.9058 16.9959H13.9058V15.9359C16.1051 15.69 18.1368 14.6424 19.6125 12.9932C21.0883 11.3441 21.9047 9.20897 21.9058 6.99591Z" fill="currentColor"/>
<path d="M12.9058 11.9959C13.8947 11.9959 14.8614 11.7027 15.6836 11.1533C16.5059 10.6039 17.1467 9.82296 17.5252 8.90933C17.9036 7.9957 18.0026 6.99037 17.8097 6.02046C17.6168 5.05056 17.1406 4.15964 16.4413 3.46038C15.742 2.76112 14.8511 2.28491 13.8812 2.09199C12.9113 1.89906 11.906 1.99808 10.9923 2.37652C10.0787 2.75495 9.29782 3.39582 8.74841 4.21806C8.19901 5.04031 7.90576 6.00701 7.90576 6.99591C7.90576 8.32199 8.43255 9.59376 9.37023 10.5314C10.3079 11.4691 11.5797 11.9959 12.9058 11.9959ZM12.9058 3.99591C13.4991 3.99591 14.0791 4.17186 14.5725 4.5015C15.0658 4.83115 15.4503 5.29968 15.6774 5.84786C15.9045 6.39604 15.9639 6.99924 15.8481 7.58118C15.7324 8.16313 15.4466 8.69768 15.0271 9.11723C14.6075 9.53679 14.073 9.82251 13.491 9.93827C12.9091 10.054 12.3059 9.99461 11.7577 9.76755C11.2095 9.54049 10.741 9.15597 10.4114 8.66262C10.0817 8.16928 9.90576 7.58926 9.90576 6.99591C9.90576 6.20026 10.2218 5.4372 10.7844 4.87459C11.347 4.31198 12.1101 3.99591 12.9058 3.99591Z" fill="currentColor"/>
</svg>