<?xml version="1.0" encoding="UTF-8"?>
<!DOCTYPE svg PUBLIC "-//W3C//DTD SVG 1.1//EN" "http://www.w3.org/Graphics/SVG/1.1/DTD/svg11.dtd">
<!-- Creator: CorelDRAW -->
<svg xmlns="http://www.w3.org/2000/svg" viewBox="0 0 59 59" fill="none">
<path d="M16.5602 24.8467C16.2506 24.8467 15.9479 24.9384 15.6904 25.1104C15.4329 25.2824 15.2322 25.527 15.1137 25.813C14.9952 26.0991 14.9642 26.4139 15.0247 26.7176C15.0852 27.0213 15.2344 27.3003 15.4534 27.5191L21.5956 33.6614C21.6829 33.7486 21.7521 33.8521 21.7993 33.9661C21.8465 34.08 21.8708 34.2022 21.8708 34.3255C21.8708 34.4489 21.8465 34.571 21.7993 34.6849C21.7521 34.7989 21.6829 34.9024 21.5956 34.9896L4.29413 52.2948C4.01021 52.5582 3.82784 52.9129 3.77888 53.2971C3.72992 53.6813 3.81749 54.0704 4.02628 54.3966C4.15805 54.583 4.32894 54.7384 4.52701 54.852C4.72507 54.9655 4.94553 55.0345 5.173 55.054C5.40046 55.0735 5.62944 55.0431 5.84395 54.9649C6.05845 54.8868 6.25331 54.7627 6.41491 54.6015L23.8106 37.204C23.9901 37.0343 24.2277 36.9398 24.4747 36.9398C24.7217 36.9398 24.9593 37.0343 25.1388 37.204L31.2835 43.3493C31.5772 43.6429 31.9754 43.8078 32.3906 43.8077C32.8058 43.8076 33.204 43.6426 33.4976 43.349C33.7911 43.0554 33.956 42.6571 33.956 42.2419C33.9559 41.8267 33.7909 41.4285 33.4973 41.1349L27.3526 34.9896C27.2654 34.9024 27.1962 34.7989 27.1489 34.6849C27.1017 34.571 27.0774 34.4489 27.0774 34.3255C27.0774 34.2022 27.1017 34.08 27.1489 33.9661C27.1962 33.8521 27.2654 33.7486 27.3526 33.6614L50.9736 10.036C51.105 9.90469 51.2723 9.81522 51.4544 9.77894C51.6366 9.74266 51.8254 9.76119 51.997 9.83221C52.1686 9.90322 52.3153 10.0235 52.4186 10.1779C52.5218 10.3323 52.577 10.5138 52.5771 10.6995L52.5807 18.9223C52.5666 19.31 52.6888 19.6904 52.9261 19.9973C53.1634 20.3043 53.5009 20.5183 53.8797 20.6021C54.1052 20.6412 54.3366 20.6306 54.5576 20.5708C54.7785 20.5111 54.9838 20.4038 55.1589 20.2564C55.334 20.109 55.4748 19.9251 55.5714 19.7175C55.668 19.51 55.718 19.2839 55.7179 19.055L55.7118 3.31472C55.7119 3.25393 55.6878 3.19561 55.645 3.15251C55.6021 3.10942 55.5439 3.08506 55.4831 3.08477H39.9098C39.5225 3.07032 39.1424 3.19223 38.8358 3.42925C38.5291 3.66627 38.3154 4.00339 38.2317 4.38183C38.1925 4.60713 38.2031 4.83827 38.2626 5.05907C38.3221 5.27986 38.4293 5.48496 38.5764 5.65999C38.7236 5.83502 38.9073 5.97574 39.1146 6.07228C39.3219 6.16883 39.5478 6.21887 39.7765 6.21889H48.0945C48.2804 6.2187 48.4621 6.27368 48.6167 6.37686C48.7713 6.48004 48.8918 6.62678 48.9629 6.79849C49.034 6.9702 49.0526 7.15916 49.0162 7.34142C48.9799 7.52369 48.8902 7.69106 48.7587 7.82234L25.1376 31.447C24.9581 31.6167 24.7205 31.7112 24.4735 31.7112C24.2265 31.7112 23.9889 31.6167 23.8094 31.447L17.6671 25.3048C17.522 25.1591 17.3495 25.0436 17.1595 24.965C16.9695 24.8864 16.7659 24.8462 16.5602 24.8467Z" fill="currentColor"/>
</svg>
