<svg xmlns="http://www.w3.org/2000/svg" viewBox="0 0 31 31" fill="none">
<path d="M23.1055 19.4465C22.7652 19.4465 22.4387 19.5818 22.1981 19.8224C21.9574 20.0631 21.8222 20.3895 21.8222 20.7299C21.8222 22.2699 21.5655 25.8632 19.2555 25.8632C17.4075 25.8632 16.6888 25.1445 16.6888 23.2965C16.9606 21.7877 17.4719 20.332 18.2032 18.9845C19.4865 16.0329 20.8982 12.9785 19.5635 10.8995C19.0753 10.2813 18.4367 9.79865 17.7087 9.49758C16.9808 9.19652 16.1878 9.08713 15.4055 9.17988C14.6548 9.17463 13.9136 9.34894 13.2439 9.68826C12.5742 10.0276 11.9953 10.5221 11.5555 11.1305V9.17988H12.8388C13.1792 9.17988 13.5056 9.04467 13.7463 8.804C13.987 8.56333 14.1222 8.23691 14.1222 7.89655C14.1222 7.55619 13.987 7.22977 13.7463 6.98909C13.5056 6.74842 13.1792 6.61321 12.8388 6.61321H11.5555V4.04655C11.5555 3.70619 11.4203 3.37977 11.1796 3.13909C10.939 2.89842 10.6125 2.76321 10.2722 2.76321C9.93182 2.76321 9.6054 2.89842 9.36473 3.13909C9.12406 3.37977 8.98885 3.70619 8.98885 4.04655V6.61321H7.70551C7.36515 6.61321 7.03873 6.74842 6.79806 6.98909C6.55739 7.22977 6.42218 7.55619 6.42218 7.89655C6.42218 8.23691 6.55739 8.56333 6.79806 8.804C7.03873 9.04467 7.36515 9.17988 7.70551 9.17988H8.98885V20.7299C8.98885 21.0702 9.12406 21.3967 9.36473 21.6373C9.6054 21.878 9.93182 22.0132 10.2722 22.0132C10.6125 22.0132 10.939 21.878 11.1796 21.6373C11.4203 21.3967 11.5555 21.0702 11.5555 20.7299C11.5555 18.3942 12.2742 11.7465 15.4055 11.7465C16.4578 11.7465 17.1765 11.939 17.4075 12.2855C17.985 13.1967 16.7017 16.0457 15.8547 17.9322C14.946 19.5959 14.3582 21.4156 14.1222 23.2965C14.0496 23.9885 14.1324 24.6879 14.3647 25.3437C14.597 25.9996 14.9729 26.5952 15.4649 27.0872C15.9568 27.5792 16.5525 27.955 17.2083 28.1873C17.8641 28.4196 18.5636 28.5025 19.2555 28.4299C22.4638 28.4299 24.3888 25.5552 24.3888 20.7299C24.3888 20.3895 24.2536 20.0631 24.013 19.8224C23.7723 19.5818 23.4459 19.4465 23.1055 19.4465Z" fill="currentColor"/>
</svg>