<?xml version="1.0" encoding="UTF-8"?>
<!DOCTYPE svg PUBLIC "-//W3C//DTD SVG 1.1//EN" "http://www.w3.org/Graphics/SVG/1.1/DTD/svg11.dtd">
<!-- Creator: CorelDRAW -->
<svg xmlns="http://www.w3.org/2000/svg" viewBox="0 0 59 59" fill="none">
<path d="M25.5681 14.2711C26.5967 14.2686 27.5841 14.6747 28.3134 15.4C29.0426 16.1254 29.454 17.1107 29.457 18.1392V36.9802C29.4597 39.4007 30.4225 41.7213 32.134 43.4328C33.8456 45.1443 36.1662 46.1071 38.5867 46.1098H47.0098C47.1954 46.1099 47.3767 46.165 47.5309 46.2681C47.6851 46.3712 47.8053 46.5177 47.8764 46.6891C47.9474 46.8605 47.966 47.049 47.9299 47.231C47.8938 47.413 47.8046 47.5802 47.6735 47.7114L42.6565 52.7346C42.3634 53.0289 42.199 53.4274 42.1992 53.8427C42.1995 54.258 42.3643 54.6563 42.6577 54.9503C42.9565 55.2351 43.3534 55.394 43.7662 55.394C44.179 55.394 44.5759 55.2351 44.8747 54.9503L55.1079 44.7073C55.1508 44.6644 55.1748 44.6063 55.1748 44.5457C55.1748 44.4851 55.1508 44.4269 55.1079 44.384L44.8955 34.171C44.6018 33.8774 44.2035 33.7124 43.7882 33.7124C43.3729 33.7124 42.9746 33.8774 42.6809 34.171C42.3873 34.4647 42.2223 34.863 42.2223 35.2783C42.2223 35.6936 42.3873 36.0919 42.6809 36.3856L47.6735 41.3788C47.8049 41.5099 47.8945 41.6772 47.9308 41.8593C47.9671 42.0414 47.9486 42.2303 47.8775 42.4018C47.8065 42.5734 47.6861 42.72 47.5316 42.8231C47.3772 42.9262 47.1956 42.9812 47.0099 42.981H38.5427C36.9632 42.9793 35.449 42.351 34.3322 41.2342C33.2155 40.1173 32.5874 38.603 32.5858 37.0235V18.4649C32.5789 17.4776 32.3775 16.5013 31.9931 15.5918C31.6087 14.6823 31.0489 13.8574 30.3456 13.1644C29.0878 11.8857 27.3738 11.1589 25.5803 11.1435C25.5559 11.1435 25.5315 11.1435 25.5082 11.1441C23.745 11.1576 22.0541 11.8472 20.7845 13.0709C20.6097 13.2397 20.3761 13.334 20.1331 13.334C19.8901 13.334 19.6566 13.2397 19.4817 13.0709C18.5075 12.1539 17.2923 11.5334 15.9783 11.2819C14.6643 11.0304 13.3059 11.1583 12.0619 11.6507C11.9256 11.7059 11.7782 11.7283 11.6316 11.7161C11.4851 11.7038 11.3435 11.6573 11.2182 11.5802C11.0929 11.5031 10.9876 11.3976 10.9106 11.2723C10.8336 11.147 10.7871 11.0053 10.775 10.8588C10.6372 9.24519 10.0452 7.70364 9.06754 6.41258C8.08989 5.12151 6.76657 4.13375 5.25078 3.56364C5.01604 3.48183 4.76478 3.45899 4.51913 3.49716C4.27348 3.53532 4.04099 3.6333 3.84213 3.78248C3.64326 3.93165 3.48414 4.12744 3.37877 4.3526C3.27339 4.57776 3.22501 4.82537 3.23787 5.07363C3.24842 5.4037 3.35771 5.72303 3.55161 5.99035C3.7455 6.25767 4.0151 6.46071 4.32558 6.57324C5.31702 6.97464 6.1654 7.66397 6.76123 8.55226C7.35706 9.44055 7.67299 10.487 7.66824 11.5566V40.2434C7.65886 40.6511 7.8012 41.0477 8.06766 41.3564C8.33412 41.6651 8.70572 41.8638 9.11039 41.914C9.32559 41.931 9.54196 41.9033 9.7459 41.8325C9.94983 41.7617 10.1369 41.6495 10.2953 41.5029C10.4538 41.3563 10.5801 41.1785 10.6665 40.9806C10.7528 40.7828 10.7972 40.5692 10.797 40.3533V18.3103C10.7828 17.3269 11.132 16.3729 11.7776 15.631C12.4233 14.8891 13.3201 14.4116 14.2961 14.29C14.8325 14.2361 15.3743 14.296 15.8861 14.4657C16.3978 14.6355 16.868 14.9113 17.2659 15.2751C17.6642 15.6384 17.9823 16.0808 18.2001 16.5739C18.4179 17.067 18.5306 17.6001 18.5309 18.1392V40.3534C18.5374 40.7706 18.7077 41.1686 19.0051 41.4614C19.3024 41.7541 19.703 41.9182 20.1203 41.9182C20.5376 41.9182 20.9382 41.7541 21.2355 41.4614C21.5329 41.1686 21.7032 40.7706 21.7097 40.3534V18.3146C21.6985 17.3365 22.0447 16.3879 22.6834 15.647C23.322 14.906 24.2092 14.4237 25.1783 14.2906C25.3078 14.2774 25.4379 14.2709 25.5681 14.2711Z" fill="currentColor"/>
</svg>
