
<svg xmlns="http://www.w3.org/2000/svg" version="1.1" viewBox="-5.0 -10.0 110.0 135.0">
 <path fill="currentColor" d="m70.391 69.207h-17.109v-12.238c4.6953-2.4609 8.6289-6.1641 11.375-10.703 2.7461-4.5352 4.1992-9.7383 4.2031-15.043 0-16.031-13.043-29.074-29.078-29.074-2.7344 0-7.043-0.23047-8.2891 2.8516-0.84766 2.0977 0.27734 4.6172 2.4922 5.2344 6.3281 1.7695 11.102 10.793 11.102 20.992 0 10.195-4.7734 19.219-11.102 20.988-3.9062 1.0938-3.6016 6.9375 0.42969 7.5859v0.003907c3.6641 0.68359 7.4297 0.66016 11.086-0.070313v9.4727h-15.887c-2.1523 0-3.8906 1.7422-3.8906 3.8906 0 2.1484 1.7383 3.8906 3.8906 3.8906h15.895v16.973c0 2.1484 1.7422 3.8906 3.8906 3.8906 2.1484 0 3.8906-1.7422 3.8906-3.8906v-16.973h17.109c2.1484 0 3.8906-1.7422 3.8906-3.8906 0-2.1484-1.7422-3.8906-3.8906-3.8906zm-9.2578-38.059c-0.003906 7.1758-3.6055 13.871-9.5938 17.828-0.33594 0.22266-0.67969 0.4375-1.0273 0.64063h-0.015625c-0.35156 0.20312-0.70703 0.39844-1.0664 0.58594l-0.023438 0.011719c-0.16406 0.085937-0.32812 0.16406-0.49219 0.24219l-0.12109 0.054688-0.41406 0.19531-0.13281 0.054688-0.44141 0.1875-0.09375 0.039062c-0.17969 0.070313-0.35938 0.14062-0.54297 0.21094 0.41016-0.60156 0.80078-1.2266 1.1719-1.875l0.023437-0.035157c0.17188-0.30078 0.33984-0.60547 0.5-0.91797 2.6016-4.957 4.0234-11.031 4.0234-17.227 0-6.5859-1.6094-13.027-4.5234-18.141-0.37891-0.66406-0.77734-1.3008-1.1953-1.9102h0.003906c4.0938 1.5195 7.625 4.2578 10.121 7.8398 2.4961 3.5859 3.8359 7.8477 3.8398 12.215z"/>
</svg>