<svg xmlns="http://www.w3.org/2000/svg" viewBox="0 0 29 28" fill="none">
<path d="M14.4746 2.46822C12.243 2.46822 10.0614 3.12997 8.2059 4.3698C6.35037 5.60963 4.90416 7.37185 4.05015 9.43361C3.19614 11.4954 2.97269 13.7641 3.40806 15.9528C3.84343 18.1416 4.91807 20.1521 6.49607 21.7301C8.07407 23.3081 10.0846 24.3827 12.2733 24.8181C14.4621 25.2535 16.7308 25.03 18.7925 24.176C20.8543 23.322 22.6165 21.8758 23.8563 20.0202C25.0962 18.1647 25.7579 15.9832 25.7579 13.7516C25.7579 12.2698 25.4661 10.8026 24.899 9.43361C24.332 8.06465 23.5009 6.82078 22.4531 5.77303C21.4054 4.72527 20.1615 3.89415 18.7925 3.32711C17.4236 2.76007 15.9563 2.46822 14.4746 2.46822ZM14.4746 22.7782C12.6893 22.7782 10.9441 22.2488 9.45964 21.257C7.97521 20.2651 6.81824 18.8553 6.13504 17.2059C5.45183 15.5565 5.27307 13.7415 5.62137 11.9905C5.96966 10.2395 6.82937 8.63114 8.09177 7.36873C9.35417 6.10633 10.9626 5.24662 12.7136 4.89833C14.4646 4.55003 16.2795 4.72879 17.9289 5.412C19.5783 6.09521 20.9881 7.25218 21.98 8.7366C22.9718 10.221 23.5013 11.9662 23.5013 13.7516C23.5013 16.1456 22.5502 18.4415 20.8574 20.1344C19.1646 21.8272 16.8686 22.7782 14.4746 22.7782Z" fill="currentColor"/>
<path d="M14.4747 16.0082C15.721 16.0082 16.7314 14.9979 16.7314 13.7515C16.7314 12.5052 15.721 11.4949 14.4747 11.4949C13.2284 11.4949 12.218 12.5052 12.218 13.7515C12.218 14.9979 13.2284 16.0082 14.4747 16.0082Z" fill="currentColor"/>
</svg>