<?xml version="1.0" encoding="UTF-8"?>
<!DOCTYPE svg PUBLIC "-//W3C//DTD SVG 1.1//EN" "http://www.w3.org/Graphics/SVG/1.1/DTD/svg11.dtd">
<!-- Creator: CorelDRAW -->
<svg xmlns="http://www.w3.org/2000/svg" viewBox="0 0 58 59" fill="none">
<path d="M11.1762 3.5728C10.9518 3.57052 10.7297 3.61713 10.5252 3.7094C10.3207 3.80168 10.1387 3.93739 9.992 4.1071C9.84206 4.28135 9.73124 4.48574 9.66701 4.70647C9.60279 4.92719 9.58665 5.15913 9.6197 5.38662C10.1168 8.9364 11.583 12.2804 13.857 15.0511C16.1311 17.8218 19.125 19.9119 22.5097 21.0918C22.6894 21.1549 22.8456 21.2713 22.9576 21.4254C23.0697 21.5794 23.1322 21.7639 23.1369 21.9544C23.1416 22.1448 23.0883 22.3321 22.984 22.4916C22.8797 22.651 22.7294 22.7749 22.5531 22.8469C19.4217 24.1191 16.744 26.3012 14.866 29.1114C12.988 31.9215 11.9961 35.2303 12.0186 38.6101C12.0789 42.9398 13.7727 47.0868 16.7609 50.2206C19.749 53.3545 23.8108 55.2437 28.1327 55.5099C32.1345 55.7136 36.0794 54.4952 39.2695 52.0704C42.4595 49.6456 44.6891 46.1707 45.5638 42.2603C46.4385 38.3499 45.9019 34.2562 44.0489 30.7034C42.1959 27.1505 39.146 24.3676 35.4387 22.847C35.2624 22.775 35.1121 22.651 35.0078 22.4916C34.9035 22.3322 34.8502 22.1448 34.8549 21.9544C34.8596 21.764 34.9221 21.5795 35.0342 21.4254C35.1462 21.2714 35.3024 21.155 35.4821 21.0918C38.8638 19.8843 41.852 17.7773 44.125 14.9974C46.3979 12.2176 47.8695 8.87044 48.3813 5.31632C48.413 5.09535 48.397 4.87013 48.3344 4.65586C48.2718 4.44158 48.1639 4.24322 48.0181 4.07415C47.8816 3.91566 47.7123 3.78875 47.5219 3.70219C47.3314 3.61563 47.1245 3.5715 46.9153 3.57286C46.5334 3.55201 46.1569 3.67123 45.8566 3.90815C45.5564 4.14508 45.3528 4.48343 45.2843 4.85974C44.7458 8.79752 42.7991 12.4069 39.8044 15.02C36.8097 17.633 32.9698 19.0726 28.9954 19.0725C25.021 19.0723 21.1812 17.6324 18.1866 15.0191C15.1921 12.4059 13.2457 8.79636 12.7076 4.85853C12.6724 4.51119 12.5113 4.18873 12.2548 3.95192C11.9983 3.7151 11.664 3.58028 11.315 3.57286L11.1762 3.5728ZM28.9959 52.4012C26.2572 52.4012 23.5799 51.589 21.3028 50.0675C19.0256 48.5459 17.2507 46.3833 16.2027 43.853C15.1546 41.3227 14.8804 38.5385 15.4147 35.8524C15.949 33.1663 17.2678 30.6989 19.2044 28.7623C21.141 26.8258 23.6083 25.5069 26.2944 24.9726C28.9805 24.4383 31.7648 24.7125 34.295 25.7606C36.8253 26.8087 38.988 28.5835 40.5095 30.8607C42.0311 33.1379 42.8432 35.8151 42.8432 38.5539C42.8391 42.2251 41.3789 45.7449 38.7829 48.3409C36.1869 50.9368 32.6672 52.3971 28.9959 52.4012Z" fill="currentColor"/>
</svg>
