<svg xmlns="http://www.w3.org/2000/svg" viewBox="0 0 27 27" fill="none">
<path d="M23.4501 15.8334H21.2167V4.66674H23.4501C23.7462 4.66674 24.0303 4.5491 24.2397 4.33968C24.4491 4.13026 24.5667 3.84624 24.5667 3.55008C24.5667 3.25392 24.4491 2.96989 24.2397 2.76047C24.0303 2.55106 23.7462 2.43341 23.4501 2.43341H20.1001C19.8039 2.43341 19.5199 2.55106 19.3105 2.76047C19.101 2.96989 18.9834 3.25392 18.9834 3.55008V9.13341H14.5167V3.55008C14.5167 3.25392 14.3991 2.96989 14.1897 2.76047C13.9803 2.55106 13.6962 2.43341 13.4001 2.43341C13.1039 2.43341 12.8199 2.55106 12.6105 2.76047C12.401 2.96989 12.2834 3.25392 12.2834 3.55008V9.13341H7.81673V3.55008C7.81673 3.25392 7.69908 2.96989 7.48967 2.76047C7.28025 2.55106 6.99622 2.43341 6.70007 2.43341H3.35007C3.05391 2.43341 2.76988 2.55106 2.56046 2.76047C2.35105 2.96989 2.2334 3.25392 2.2334 3.55008C2.2334 3.84624 2.35105 4.13026 2.56046 4.33968C2.76988 4.5491 3.05391 4.66674 3.35007 4.66674H5.5834V15.8334H3.35007C3.05391 15.8334 2.76988 15.9511 2.56046 16.1605C2.35105 16.3699 2.2334 16.6539 2.2334 16.9501C2.2334 17.2462 2.35105 17.5303 2.56046 17.7397C2.76988 17.9491 3.05391 18.0667 3.35007 18.0667H6.70007C6.99622 18.0667 7.28025 17.9491 7.48967 17.7397C7.69908 17.5303 7.81673 17.2462 7.81673 16.9501V11.3667H12.2834V15.9897C11.2308 16.2615 10.3134 16.9079 9.70323 17.8077C9.09307 18.7075 8.83201 19.7989 8.969 20.8774C9.10599 21.9559 9.63161 22.9474 10.4473 23.6661C11.2631 24.3847 12.3129 24.7812 13.4001 24.7812C14.4872 24.7812 15.5371 24.3847 16.3528 23.6661C17.1685 22.9474 17.6941 21.9559 17.8311 20.8774C17.9681 19.7989 17.7071 18.7075 17.0969 17.8077C16.4867 16.9079 15.5694 16.2615 14.5167 15.9897V11.3667H18.9834V16.9501C18.9834 17.2462 19.101 17.5303 19.3105 17.7397C19.5199 17.9491 19.8039 18.0667 20.1001 18.0667H23.4501C23.7462 18.0667 24.0303 17.9491 24.2397 17.7397C24.4491 17.5303 24.5667 17.2462 24.5667 16.9501C24.5667 16.6539 24.4491 16.3699 24.2397 16.1605C24.0303 15.9511 23.7462 15.8334 23.4501 15.8334ZM15.6334 20.3001C15.6334 20.7418 15.5024 21.1736 15.257 21.5409C15.0116 21.9081 14.6628 22.1944 14.2547 22.3634C13.8466 22.5324 13.3976 22.5767 12.9644 22.4905C12.5311 22.4043 12.1332 22.1916 11.8209 21.8793C11.5085 21.5669 11.2958 21.169 11.2096 20.7358C11.1235 20.3026 11.1677 19.8535 11.3367 19.4454C11.5058 19.0373 11.792 18.6885 12.1593 18.4431C12.5266 18.1977 12.9584 18.0667 13.4001 18.0667C13.9924 18.0667 14.5604 18.302 14.9793 18.7209C15.3981 19.1397 15.6334 19.7078 15.6334 20.3001Z" fill="currentColor"/>
</svg>