<svg xmlns="http://www.w3.org/2000/svg" viewBox="0 0 28 28" fill="none">
<path d="M21.5478 10.8135C21.5495 9.31481 21.1204 7.8472 20.3115 6.58553C19.5026 5.32386 18.3481 4.32132 16.9855 3.69735C15.6229 3.07339 14.1096 2.8543 12.6259 3.0662C11.1423 3.27809 9.75083 3.91204 8.61735 4.8925C7.48387 5.87296 6.65614 7.15861 6.23278 8.59627C5.80943 10.0339 5.80829 11.563 6.22951 13.0013C6.65073 14.4396 7.47654 15.7264 8.60857 16.7086C9.74059 17.6907 11.1311 18.3267 12.6144 18.5408V19.7468H11.4978C11.2016 19.7468 10.9176 19.8645 10.7082 20.0739C10.4987 20.2833 10.3811 20.5673 10.3811 20.8635C10.3811 21.1597 10.4987 21.4437 10.7082 21.6531C10.9176 21.8625 11.2016 21.9802 11.4978 21.9802H12.6144V24.2135C12.6144 24.5097 12.7321 24.7937 12.9415 25.0031C13.1509 25.2125 13.4349 25.3302 13.7311 25.3302C14.0273 25.3302 14.3113 25.2125 14.5207 25.0031C14.7301 24.7937 14.8478 24.5097 14.8478 24.2135V21.9802H15.9644C16.2606 21.9802 16.5446 21.8625 16.754 21.6531C16.9634 21.4437 17.0811 21.1597 17.0811 20.8635C17.0811 20.5673 16.9634 20.2833 16.754 20.0739C16.5446 19.8645 16.2606 19.7468 15.9644 19.7468H14.8478V18.5408C16.7066 18.2725 18.4066 17.344 19.6369 15.925C20.8673 14.5061 21.5456 12.6916 21.5478 10.8135ZM8.14776 10.8135C8.14776 9.70922 8.47521 8.62974 9.08872 7.71157C9.70222 6.79339 10.5742 6.07776 11.5944 5.65517C12.6147 5.23258 13.7373 5.12202 14.8203 5.33745C15.9034 5.55288 16.8983 6.08465 17.6791 6.86549C18.4599 7.64633 18.9917 8.64119 19.2071 9.72425C19.4226 10.8073 19.312 11.9299 18.8894 12.9501C18.4668 13.9704 17.7512 14.8424 16.833 15.4559C15.9149 16.0694 14.8354 16.3968 13.7311 16.3968C12.2503 16.3968 10.8302 15.8086 9.78308 14.7615C8.736 13.7144 8.14776 12.2943 8.14776 10.8135Z" fill="currentColor"/>
</svg>