<svg xmlns="http://www.w3.org/2000/svg" viewBox="0 0 23 23" fill="none">
<path d="M19.9816 13.7082H17.2316C17.111 13.7075 16.9914 13.7306 16.8797 13.7762C16.768 13.8218 16.6664 13.889 16.5808 13.974L11.7316 18.8323L6.88244 13.974C6.79679 13.889 6.69521 13.8218 6.58352 13.7762C6.47184 13.7306 6.35225 13.7075 6.23161 13.7082H3.48161C3.23849 13.7082 3.00534 13.8047 2.83343 13.9766C2.66152 14.1486 2.56494 14.3817 2.56494 14.6248C2.56494 14.8679 2.66152 15.1011 2.83343 15.273C3.00534 15.4449 3.23849 15.5415 3.48161 15.5415H5.85577L11.0808 20.7757C11.166 20.8616 11.2674 20.9298 11.3791 20.9763C11.4908 21.0229 11.6106 21.0468 11.7316 21.0468C11.8526 21.0468 11.9724 21.0229 12.0841 20.9763C12.1958 20.9298 12.2972 20.8616 12.3824 20.7757L17.6074 15.5415H19.9816C20.2247 15.5415 20.4579 15.4449 20.6298 15.273C20.8017 15.1011 20.8983 14.8679 20.8983 14.6248C20.8983 14.3817 20.8017 14.1486 20.6298 13.9766C20.4579 13.8047 20.2247 13.7082 19.9816 13.7082Z" fill="currentColor"/>
<path d="M11.0811 17.109C11.1663 17.1949 11.2677 17.2631 11.3794 17.3097C11.4911 17.3562 11.6109 17.3801 11.7319 17.3801C11.853 17.3801 11.9728 17.3562 12.0845 17.3097C12.1962 17.2631 12.2976 17.1949 12.3828 17.109L17.8828 11.609C17.9682 11.5235 18.036 11.4221 18.0823 11.3104C18.1285 11.1987 18.1524 11.079 18.1524 10.9582C18.1524 10.8373 18.1285 10.7176 18.0823 10.6059C18.036 10.4943 17.9682 10.3928 17.8828 10.3073C17.7973 10.2219 17.6958 10.1541 17.5842 10.1078C17.4725 10.0616 17.3528 10.0378 17.2319 10.0378C17.1111 10.0378 16.9914 10.0616 16.8797 10.1078C16.768 10.1541 16.6666 10.2219 16.5811 10.3073L11.7319 15.1657L6.88277 10.3073C6.71016 10.1347 6.47605 10.0378 6.23194 10.0378C5.98783 10.0378 5.75372 10.1347 5.58111 10.3073C5.4085 10.4799 5.31152 10.7141 5.31152 10.9582C5.31152 11.2023 5.4085 11.4364 5.58111 11.609L11.0811 17.109Z" fill="currentColor"/>
<path d="M11.7314 8.20816C11.9746 8.20816 12.2077 8.30474 12.3796 8.47665C12.5515 8.64855 12.6481 8.88171 12.6481 9.12483C12.6481 9.36794 12.5515 9.6011 12.3796 9.77301C12.2077 9.94492 11.9746 10.0415 11.7314 10.0415C11.4883 10.0415 11.2552 10.1381 11.0833 10.31C10.9114 10.4819 10.8148 10.715 10.8148 10.9582C10.8148 11.2013 10.9114 11.4344 11.0833 11.6063C11.2552 11.7782 11.4883 11.8748 11.7314 11.8748C12.4608 11.8748 13.1603 11.5851 13.676 11.0694C14.1917 10.5536 14.4814 9.85417 14.4814 9.12483C14.4814 8.39548 14.1917 7.69601 13.676 7.18028C13.1603 6.66456 12.4608 6.37483 11.7314 6.37483C11.4883 6.37483 11.2552 6.27825 11.0833 6.10634C10.9114 5.93443 10.8148 5.70128 10.8148 5.45816C10.8148 5.21505 10.9114 4.98189 11.0833 4.80998C11.2552 4.63807 11.4883 4.54149 11.7314 4.54149C11.9746 4.54149 12.2077 4.44492 12.3796 4.27301C12.5515 4.1011 12.6481 3.86794 12.6481 3.62483C12.6481 3.38171 12.5515 3.14855 12.3796 2.97665C12.2077 2.80474 11.9746 2.70816 11.7314 2.70816C11.0021 2.70816 10.3026 2.99789 9.7869 3.51362C9.27118 4.02934 8.98145 4.72882 8.98145 5.45816C8.98145 6.18751 9.27118 6.88698 9.7869 7.4027C10.3026 7.91843 11.0021 8.20816 11.7314 8.20816Z" fill="currentColor"/>
</svg>