<?xml version="1.0" encoding="UTF-8"?>
<!DOCTYPE svg PUBLIC "-//W3C//DTD SVG 1.1//EN" "http://www.w3.org/Graphics/SVG/1.1/DTD/svg11.dtd">
<!-- Creator: CorelDRAW -->
<svg xmlns="http://www.w3.org/2000/svg" viewBox="0 0 59 58" fill="none">
<path d="M4.37761 25.0029C4.08444 24.7093 3.91977 24.3114 3.91977 23.8965C3.91977 23.4816 4.08444 23.0836 4.37761 22.79L11.7612 15.4058C11.7832 15.3746 11.8123 15.3492 11.8461 15.3317C11.88 15.3141 11.9175 15.305 11.9556 15.305C11.9937 15.305 12.0313 15.3141 12.0651 15.3317C12.0989 15.3492 12.128 15.3746 12.15 15.4058L20.2665 23.5224C20.446 23.692 20.6837 23.7864 20.9307 23.7864C21.1776 23.7864 21.4153 23.692 21.5948 23.5224L29.7009 15.4046C29.7229 15.3737 29.752 15.3485 29.7857 15.3311C29.8194 15.3137 29.8568 15.3047 29.8947 15.3047C29.9326 15.3047 29.97 15.3137 30.0037 15.3311C30.0374 15.3485 30.0665 15.3737 30.0885 15.4046L38.2062 23.5224C38.3857 23.692 38.6233 23.7864 38.8703 23.7864C39.1173 23.7864 39.3549 23.692 39.5345 23.5224L47.64 15.4058C47.6611 15.3736 47.6898 15.3472 47.7237 15.3289C47.7575 15.3106 47.7953 15.3009 47.8337 15.3008C47.8722 15.3007 47.9101 15.3101 47.944 15.3282C47.9779 15.3463 48.0068 15.3726 48.0281 15.4046L55.4203 22.7974C55.5655 22.9427 55.6808 23.1151 55.7594 23.305C55.8381 23.4948 55.8785 23.6983 55.8785 23.9038C55.8785 24.1092 55.838 24.3127 55.7594 24.5025C55.6808 24.6924 55.5655 24.8648 55.4202 25.0101C55.2749 25.1554 55.1024 25.2707 54.9126 25.3493C54.7228 25.4279 54.5193 25.4684 54.3138 25.4684C54.1083 25.4684 53.9049 25.4279 53.715 25.3493C53.5252 25.2707 53.3527 25.1554 53.2074 25.0101L48.5 20.3034C48.3239 20.1273 48.0851 20.0284 47.8361 20.0283H47.8355C47.5866 20.0284 47.3478 20.1273 47.1717 20.3034L39.0582 28.4284C39.0087 28.4775 38.9418 28.505 38.8721 28.505C38.8024 28.505 38.7355 28.4775 38.686 28.4284L30.5603 20.3034C30.3842 20.1273 30.1455 20.0284 29.8965 20.0283H29.8959C29.6469 20.0284 29.4082 20.1273 29.2321 20.3034L21.1186 28.4284C21.0691 28.4775 21.0022 28.505 20.9325 28.505C20.8628 28.505 20.7959 28.4775 20.7463 28.4284L12.6194 20.3021C12.5323 20.2149 12.4288 20.1457 12.3149 20.0986C12.201 20.0514 12.0789 20.0271 11.9556 20.0271C11.8323 20.0271 11.7102 20.0514 11.5963 20.0986C11.4824 20.1457 11.3789 20.2149 11.2917 20.3021L6.59043 25.0029C6.29633 25.295 5.89859 25.459 5.48402 25.459C5.06946 25.459 4.67172 25.295 4.37761 25.0029ZM48.0049 29.5752C47.9828 29.5526 47.9564 29.5346 47.9272 29.5225C47.898 29.5103 47.8666 29.5041 47.835 29.5043C47.8031 29.504 47.7714 29.5101 47.7419 29.5223C47.7124 29.5345 47.6857 29.5525 47.6632 29.5752L39.5345 37.7162C39.3584 37.8922 39.1196 37.9911 38.8707 37.9912H38.87C38.621 37.9911 38.3822 37.8922 38.2062 37.7162L30.0652 29.5752C30.0431 29.5526 30.0167 29.5346 29.9875 29.5225C29.9583 29.5103 29.927 29.5041 29.8953 29.5043C29.8634 29.504 29.8317 29.5101 29.8022 29.5223C29.7727 29.5345 29.7459 29.5525 29.7235 29.5752L21.5948 37.7162C21.4187 37.8922 21.1799 37.9911 20.9309 37.9912H20.9303C20.6813 37.9911 20.4426 37.8922 20.2665 37.7162L12.1262 29.5752C12.0779 29.536 12.0177 29.5147 11.9556 29.5147C11.8935 29.5147 11.8333 29.536 11.7851 29.5752L4.37761 36.9826C4.08402 37.2761 3.91901 37.6741 3.9189 38.0892C3.91879 38.5043 4.08358 38.9025 4.37701 39.1961C4.67045 39.4897 5.0685 39.6547 5.4836 39.6548C5.8987 39.6549 6.29684 39.4901 6.59043 39.1967L11.2917 34.4959C11.3789 34.4087 11.4824 34.3396 11.5963 34.2924C11.7102 34.2452 11.8323 34.2209 11.9556 34.2209C12.0789 34.2209 12.201 34.2452 12.3149 34.2924C12.4288 34.3396 12.5322 34.4087 12.6194 34.4959L20.7341 42.61C20.7869 42.6621 20.8582 42.6912 20.9324 42.691C21.0066 42.6908 21.0777 42.6612 21.1302 42.6088L29.2321 34.4972C29.3193 34.41 29.4228 34.3408 29.5368 34.2936C29.6507 34.2464 29.7729 34.2221 29.8962 34.2221C30.0195 34.2221 30.1417 34.2464 30.2556 34.2936C30.3696 34.3408 30.4731 34.41 30.5603 34.4972L38.6732 42.61C38.7261 42.6621 38.7975 42.6912 38.8718 42.691C38.9461 42.6908 39.0173 42.6612 39.0699 42.6088L47.1718 34.4971C47.3479 34.3211 47.5866 34.2221 47.8356 34.2221H47.8362C48.0852 34.2221 48.324 34.3211 48.5001 34.4971L53.2075 39.204C53.5011 39.4974 53.8992 39.6622 54.3143 39.6621C54.7294 39.662 55.1275 39.497 55.4209 39.2034C55.7144 38.9098 55.8791 38.5116 55.879 38.0965C55.8789 37.6814 55.7139 37.2833 55.4203 36.9899L48.0049 29.5752Z" fill="currentColor"/>
</svg>
