<?xml version="1.0" encoding="UTF-8"?>
<!DOCTYPE svg PUBLIC "-//W3C//DTD SVG 1.1//EN" "http://www.w3.org/Graphics/SVG/1.1/DTD/svg11.dtd">
<!-- Creator: CorelDRAW -->
<svg xmlns="http://www.w3.org/2000/svg" xml:space="preserve" style="shape-rendering:geometricPrecision; text-rendering:geometricPrecision; image-rendering:optimizeQuality; fill-rule:evenodd; clip-rule:evenodd"
viewBox="0 0 2048 2048"
 xmlns:xlink="http://www.w3.org/1999/xlink">
 <defs>
 </defs>
 <g id="Layer_x0020_1">
  <metadata id="CorelCorpID_0Corel-Layer"/>
  <g id="_276520384">
   <path id="_276520840" fill="currentColor" d="M1382.94 857.473l-188.034 108.561 -36.3827 -36.3874 -61.8626 -61.8615c-42.991,51.228 -96.945,88.206 -167.386,92.5796 -76.6371,4.75748 -153.542,-30.4618 -221.982,-61.0146 -39.1618,-17.4827 -85.5969,-36.4028 -128.264,-42.6933 -24.2811,-3.57992 -47.2075,-2.96339 -69.9922,6.84213 -26.8571,11.5595 -52.3961,35.289 -73.9571,54.6886 -37.5036,33.7406 -73.4233,64.9749 -115.318,93.5056l-63.7654 43.4244 17.4461 -75.1477c22.2709,-95.928 65.2193,-200.699 161.139,-243.487 103.048,-45.9685 230.849,-2.89843 327.454,40.2284 115.122,51.3922 192.595,82.5012 267.181,-46.8213l43.826 -75.9898 144.233 144.232 188.03 -108.559 36.3851 36.3815 116.382 116.381 138.791 -138.79 95.1331 95.1331 -233.926 233.922 -175.13 -175.128z"/>
   <path id="_276520240" fill="currentColor" d="M1382.94 1196.46l-188.034 108.561 -36.3827 -36.3874 -61.8626 -61.8615c-42.991,51.228 -96.945,88.206 -167.386,92.5796 -76.6371,4.75748 -153.542,-30.4618 -221.982,-61.0146 -39.1618,-17.4827 -85.5969,-36.4028 -128.264,-42.6933 -24.2811,-3.57992 -47.2075,-2.96339 -69.9922,6.84331 -26.8571,11.5595 -52.3961,35.289 -73.9571,54.6874 -37.5036,33.7406 -73.4233,64.976 -115.318,93.5056l-63.7654 43.4244 17.4461 -75.1477c22.2709,-95.928 65.2193,-200.699 161.139,-243.487 103.048,-45.9685 230.849,-2.89843 327.454,40.2284 115.122,51.3922 192.595,82.5012 267.181,-46.8213l43.826 -75.9886 144.233 144.23 188.03 -108.558 36.3851 36.3803 116.382 116.381 138.791 -138.79 95.1331 95.1331 -233.926 233.922 -175.13 -175.128z"/>
  </g>
 </g>
 <rect fill="none" width="2048" height="2048"/>
</svg>
