<?xml version="1.0" encoding="UTF-8"?>
<!DOCTYPE svg PUBLIC "-//W3C//DTD SVG 1.1//EN" "http://www.w3.org/Graphics/SVG/1.1/DTD/svg11.dtd">
<!-- Creator: CorelDRAW -->
<svg xmlns="http://www.w3.org/2000/svg" viewBox="0 0 58 59" fill="none">
<path d="M15.5495 11.2809C22.1032 11.2809 27.4348 18.4338 27.4348 27.2256V48.8045C27.436 49.2188 27.6014 49.6158 27.8948 49.9084C28.1881 50.2009 28.5856 50.3652 28.9999 50.3652C29.4142 50.3652 29.8116 50.2009 30.105 49.9084C30.3984 49.6158 30.5638 49.2188 30.5649 48.8045V27.2256C30.5649 18.4338 35.8966 11.2809 42.4503 11.2809C44.4466 11.3403 46.386 11.9603 48.0465 13.0701C49.707 14.1799 51.0216 15.7346 51.84 17.5565C51.941 17.8348 52.1158 18.0803 52.3458 18.2668C52.5758 18.4532 52.8522 18.5735 53.1454 18.6148C53.4386 18.656 53.7374 18.6166 54.0099 18.5008C54.2824 18.385 54.5182 18.1972 54.692 17.9575C54.8304 17.7633 54.922 17.5398 54.9598 17.3044C54.9975 17.069 54.9804 16.828 54.9096 16.6003C53.2155 11.1122 47.2255 8.1508 42.4503 8.1508C37.3473 8.1508 32.6319 11.4338 29.8368 16.9323C29.7498 17.0764 29.627 17.1956 29.4804 17.2783C29.3338 17.3611 29.1683 17.4045 28.9999 17.4045C28.8315 17.4045 28.666 17.3611 28.5194 17.2783C28.3728 17.1956 28.25 17.0764 28.163 16.9323C25.3678 11.4338 20.6525 8.1508 15.5495 8.1508C10.7742 8.1508 4.78421 11.1122 3.09076 16.6003C3.02105 16.8298 3.00482 17.0722 3.0433 17.309C3.08178 17.5458 3.17396 17.7706 3.31276 17.9662C3.45156 18.1618 3.63331 18.3231 3.84407 18.4376C4.05483 18.5522 4.28901 18.6169 4.52867 18.6269C4.88101 18.6556 5.23283 18.5658 5.52832 18.3717C5.8238 18.1777 6.04604 17.8906 6.15977 17.5559C6.9783 15.7341 8.29299 14.1796 9.95349 13.0699C11.614 11.9602 13.5533 11.3403 15.5495 11.2809Z" fill="currentColor"/>
</svg>
