<?xml version="1.0" encoding="UTF-8"?>
<!DOCTYPE svg PUBLIC "-//W3C//DTD SVG 1.1//EN" "http://www.w3.org/Graphics/SVG/1.1/DTD/svg11.dtd">
<!-- Creator: CorelDRAW -->
<svg xmlns="http://www.w3.org/2000/svg" xml:space="preserve" style="shape-rendering:geometricPrecision; text-rendering:geometricPrecision; image-rendering:optimizeQuality; fill-rule:evenodd; clip-rule:evenodd"
viewBox="0 0 2048 2048"
 xmlns:xlink="http://www.w3.org/1999/xlink">
 <g id="Layer_x0020_1">
  <metadata id="CorelCorpID_0Corel-Layer"/>
  <g id="_276513808">
   <path id="_274743952" fill="currentColor" d="M1097.34 1119.99l-107.86 0 0 -310.231c0,-132.594 26.2394,-275.894 113.063,-380.694 65.7461,-79.3583 157.179,-124.44 259.713,-130.983 33.4878,-2.1378 67.2154,-0.0696851 100.244,5.8004 117.078,20.8075 229.917,90.6461 288.712,195.814 47.7331,85.3796 52.3465,180.304 20.2559,272.055l-7.19764 20.5784 -203.338 0 6.90001 -36.4359c11.1272,-58.7658 15.6933,-128.079 -3.46536,-185.749 -11.6079,-34.9394 -32.8276,-67.1386 -67.7008,-82.0654 -32.0717,-13.7291 -67.8438,-9.43702 -99.6095,2.88898 -47.4615,18.4158 -89.1733,55.1788 -121.556,93.6898 -112.818,134.167 -160.455,337.017 -175.663,507.342l-2.49921 27.9898z"/>
   <path id="_276514024" fill="currentColor" d="M948.164 1092c-15.2079,-170.325 -62.8453,-373.173 -175.663,-507.342 -32.3811,-38.5111 -74.0942,-75.2741 -121.554,-93.6898 -31.7658,-12.326 -67.5378,-16.6181 -99.6095,-2.88898 -34.8733,14.9268 -56.093,47.126 -67.7008,82.0654 -19.1587,57.6697 -14.5925,126.983 -3.46536,185.749l6.90001 36.4359 -203.338 0 -7.19764 -20.5784c-32.0906,-91.7516 -27.4772,-186.676 20.2559,-272.055 58.7965,-105.169 171.636,-175.008 288.715,-195.814 33.026,-5.87008 66.7524,-7.9382 100.238,-5.80158 102.534,6.54449 193.968,51.6248 259.715,130.983 86.8241,104.8 113.063,248.1 113.063,380.696l0 310.231 -107.86 0 -2.49921 -27.9898z"/>
   <path id="_276513760" fill="currentColor" d="M1060.33 1025.72c3.77008,3.75355 8.85946,8.02678 11.6079,10.611 15.7961,14.85 30.1748,32.8878 27.8658,55.9902 -3.93307,39.3473 -3.28229,80.4331 -1.41732,119.897 2.25355,47.6918 6.73347,95.419 12.2433,142.839 9.59765,82.6075 22.4634,165.088 37.0937,246.952 6.65434,37.2366 13.578,74.6599 21.3662,111.684l7.79056 37.0418 -305.77 0 7.79764 -37.0465c7.80591,-37.0937 14.7484,-74.5843 21.4193,-111.889 14.6197,-81.7701 27.476,-164.153 37.0666,-246.666 5.51457,-47.4355 9.99686,-95.1804 12.2469,-142.889 1.86142,-39.4654 2.5063,-80.5631 -1.44449,-119.908 -0.475985,-4.72323 -0.441733,-3.50433 -0.129921,-8.0941 1.35709,-19.9961 14.113,-34.8425 28.0016,-47.9032 2.74252,-2.57835 7.82245,-6.8504 11.5843,-10.5992l-5.9752 -27.7418 84.6272 0 -5.97402 27.7217z"/>
  </g>
 </g>
 <rect fill="none" width="2048" height="2048"/>
</svg>
