<?xml version="1.0" encoding="UTF-8"?>
<!DOCTYPE svg PUBLIC "-//W3C//DTD SVG 1.1//EN" "http://www.w3.org/Graphics/SVG/1.1/DTD/svg11.dtd">
<!-- Creator: CorelDRAW -->
<svg xmlns="http://www.w3.org/2000/svg" xml:space="preserve" style="shape-rendering:geometricPrecision; text-rendering:geometricPrecision; image-rendering:optimizeQuality; fill-rule:evenodd; clip-rule:evenodd"
viewBox="0 0 2048 2048"
 xmlns:xlink="http://www.w3.org/1999/xlink">
 <g id="Layer_x0020_1">
  <metadata id="CorelCorpID_0Corel-Layer"/>
  <g id="_276519688">
   <path id="_276519520" fill="currentColor" d="M428.402 601.6c0,0 460.803,-192 844.803,-115.2 0,0 -476.996,429.637 -476.996,852.038l97.5402 -26.3551c0,0 72.2528,-441.682 801.855,-1056.08l-1228.8 76.7989 -38.4012 268.801z"/>
   <path id="_276519232" fill="currentColor" d="M352.396 1792c0,0 284.678,-463.531 553.478,-655.53l26.4768 100.798 -579.955 554.732z"/>
   <path id="_276519136" fill="currentColor" fill-rule="nonzero" d="M1263.53 1130.48c85.4068,40.0855 151.034,102.996 188.309,172.7 40.0347,74.8642 48.0048,157.876 14.4165,231.277 -33.6177,73.4658 -101.671,121.736 -184.517,140.385 -78.2611,17.6138 -170.361,8.51575 -257.751,-31.4717 -87.3804,-39.9874 -154.491,-103.774 -192.353,-174.575 -40.0359,-74.8654 -48.0048,-157.875 -14.4154,-231.277l43.5 19.8756 -2.89843 -1.32638 -40.6004 -18.5504 0.0106299 -0.0236221 -0.158268 -0.0720473c0.656693,-1.43504 1.37599,-2.81811 2.15197,-4.15512 34.2673,-71.0753 101.274,-117.845 182.509,-136.132 77.1036,-17.3551 167.642,-8.78032 253.869,29.7166 2.79449,0.986221 5.44252,2.20512 7.92757,3.62953zm103.936 217.7c-27.9366,-52.2414 -78.1654,-99.8883 -144.28,-130.97 -1.19291,-0.437008 -2.37756,-0.921261 -3.55276,-1.45866l0.0720473 -0.157087c-67.8024,-31.0205 -138.111,-38.3362 -196.973,-25.0866 -52.9878,11.928 -95.98,40.6949 -117.006,83.5961 -0.81378,2.19803 -1.7941,4.34646 -2.94213,6.42993 -18.7205,44.0079 -12.3874,95.367 13.2236,143.261 28.4221,53.1473 79.9134,101.541 147.73,132.574 67.8119,31.0288 138.134,38.3492 197.002,25.0996 54.2847,-12.2197 98.0812,-42.1075 118.514,-86.7615 20.4638,-44.7201 14.4591,-97.4434 -11.7886,-146.526z"/>
  </g>
 </g>
 <rect fill="none" width="2048" height="2048"/>
</svg>
