<?xml version="1.0" encoding="UTF-8"?>
<!DOCTYPE svg PUBLIC "-//W3C//DTD SVG 1.1//EN" "http://www.w3.org/Graphics/SVG/1.1/DTD/svg11.dtd">
<!-- Creator: CorelDRAW -->
<svg xmlns="http://www.w3.org/2000/svg" xml:space="preserve" style="shape-rendering:geometricPrecision; text-rendering:geometricPrecision; image-rendering:optimizeQuality; fill-rule:evenodd; clip-rule:evenodd"
viewBox="0 0 2048 2048"
 xmlns:xlink="http://www.w3.org/1999/xlink">
 <g id="Layer_x0020_1">
  <metadata id="CorelCorpID_0Corel-Layer"/>
  <g id="_274939176">
   <path id="_274939320" fill="currentColor" d="M935.144 1093.37c-126.993,-197.948 -249.495,-452.068 -89.328,-665.399 211.203,-281.303 737.555,-217.448 762.655,191.264l0.914174 29.9906c-4.83544,188.064 -63.4063,254.108 -144.871,411.378l0 0c-56.8595,114.469 -290.871,594.608 -80.4886,671.494 92.2394,33.7087 215.563,-29.3327 278.152,-96.8422 26.2288,-28.2898 31.9122,-34.7799 32.9587,-36.1264 -6.27402,30.0673 -3.3,24.9083 -17.126,47.9528 -60.6863,101.145 -222.269,180.878 -336.327,128.198 -229.114,-105.82 -52.5969,-554.928 16.4752,-713.288 66.0934,-151.537 141.085,-239.521 138.815,-410.926 -3.36733,-254.198 -283.695,-332.054 -467,-208.704 -214.534,144.365 -88.8698,419.544 23.1177,584.697 24.4949,35.8347 9.51851,71.0776 -26.3162,95.5737 -35.8359,24.4949 -67.1351,6.57284 -91.6312,-29.2618zm759.993 505.759c0.45,-0.578741 0.0425197,-0.206693 0.0425197,-0.206693l-0.0425197 0.206693z"/>
   <path id="_274939368" fill="currentColor" fill-rule="nonzero" d="M722.688 823.795c102.174,0 194.685,41.4225 261.65,108.387 66.965,66.965 108.387,159.476 108.387,261.651 0,102.175 -41.4213,194.685 -108.387,261.65 -66.965,66.965 -159.475,108.387 -261.65,108.387 -102.176,0 -194.687,-41.4225 -261.652,-108.386 -66.9638,-66.965 -108.385,-159.476 -108.385,-261.651 0,-102.176 41.4213,-194.686 108.386,-261.651 66.965,-66.9662 159.475,-108.387 261.651,-108.387zm166.143 203.894c-42.515,-42.515 -101.257,-68.8111 -166.143,-68.8111 -64.8886,0 -123.631,26.2961 -166.145,68.8111 -42.515,42.515 -68.8111,101.256 -68.8111,166.145 0,64.8875 26.2961,123.63 68.8099,166.145 42.515,42.5138 101.257,68.8111 166.146,68.8111 64.8875,0 123.628,-26.2973 166.143,-68.8123 42.515,-42.5138 68.8123,-101.256 68.8123,-166.143 0,-64.8875 -26.2973,-123.63 -68.8123,-166.145z"/>
  </g>
 </g>
 <rect fill="none" width="2048" height="2048"/>
</svg>
