<?xml version="1.0" encoding="UTF-8"?>
<!DOCTYPE svg PUBLIC "-//W3C//DTD SVG 1.1//EN" "http://www.w3.org/Graphics/SVG/1.1/DTD/svg11.dtd">
<!-- Creator: CorelDRAW -->
<svg xmlns="http://www.w3.org/2000/svg" viewBox="0 0 59 59" fill="none">
<path d="M33.0932 6.1922C33.5193 6.19243 33.945 6.21692 34.3684 6.26555C35.8995 6.4432 37.3747 6.94688 38.6948 7.74268C40.0148 8.53848 41.149 9.60792 42.021 10.879C42.8929 12.15 43.4823 13.5931 43.7496 15.1112C44.0168 16.6292 43.9557 18.1869 43.5702 19.6793L35.2596 43.2289C34.5557 45.1855 34.56 47.327 35.2718 49.2808C35.9836 51.2346 37.3579 52.877 39.1554 53.9223C40.3063 54.5475 41.579 54.9161 42.8859 55.0028C44.1928 55.0894 45.5029 54.892 46.7263 54.4242C47.9496 53.9564 49.0572 53.2293 49.9729 52.2927C50.8885 51.3562 51.5905 50.2325 52.0306 48.9989C52.1151 48.7689 52.1419 48.5217 52.1086 48.2789C52.0754 48.0361 51.9831 47.8052 51.8399 47.6064C51.6851 47.3841 51.4789 47.2025 51.2389 47.0769C50.999 46.9513 50.7322 46.8855 50.4614 46.885C50.1508 46.8978 49.852 47.0073 49.6067 47.1982C49.3614 47.3891 49.1819 47.6519 49.0933 47.9499C48.6748 49.1016 47.9129 50.0973 46.9106 50.8024C45.9083 51.5074 44.7138 51.888 43.4883 51.8927C42.4971 51.8971 41.5207 51.6516 40.6494 51.1787C39.4982 50.4893 38.6249 49.4184 38.1811 48.152C37.7373 46.8857 37.7511 45.5039 38.2201 44.2466C46.5381 20.6701 46.5381 20.6701 46.5479 20.6463C47.092 18.8284 47.2133 16.9102 46.9024 15.0382C46.4089 11.5505 44.6114 8.37954 41.8723 6.16472C39.1333 3.9499 35.6563 2.85593 32.1425 3.10336C28.6287 3.35079 25.3394 4.92122 22.9378 7.49803C20.5361 10.0749 19.2007 13.4664 19.2009 16.9889C19.1999 18.1794 19.3536 19.3651 19.6581 20.516L20.9266 24.1538C20.9822 24.3137 20.9935 24.4857 20.9594 24.6515C20.9253 24.8173 20.847 24.9708 20.7329 25.0958C20.6187 25.2207 20.4728 25.3125 20.3107 25.3614C20.1487 25.4102 19.9764 25.4144 19.8122 25.3734C19.0672 25.1904 18.3027 25.0991 17.5357 25.1013C16.2128 25.1034 14.9037 25.3696 13.6851 25.8845C12.4665 26.3993 11.3631 27.1523 10.4395 28.0994C9.5159 29.0465 8.79078 30.1685 8.30668 31.3996C7.82259 32.6307 7.58928 33.9461 7.62043 35.2685C7.64336 35.9574 7.73511 36.6422 7.8943 37.3127C8.24712 38.6921 8.8898 39.9804 9.77954 41.0919C10.6693 42.2034 11.7856 43.1126 13.0543 43.7589C14.2745 44.4071 15.6188 44.7879 16.9977 44.876C18.3766 44.9641 19.7584 44.7575 21.0513 44.2699C23.4335 43.2731 25.3518 41.4138 26.4225 39.0639C27.4933 36.7139 27.6377 34.0464 26.8268 31.5946L22.6834 19.7013C22.4506 18.8159 22.332 17.9044 22.3307 16.9889C22.334 15.4698 22.6566 13.9684 23.2775 12.582C23.8984 11.1956 24.8038 9.95521 25.9349 8.9412C27.8969 7.16783 30.4485 6.18792 33.0932 6.1922ZM17.5357 41.7899C16.1943 41.7911 14.8828 41.3943 13.767 40.6499C12.6512 39.9054 11.7814 38.8467 11.2675 37.6077C10.7536 36.3687 10.6189 35.0051 10.8802 33.6895C11.1416 32.3739 11.7874 31.1654 12.7359 30.2169C13.6844 29.2684 14.8929 28.6226 16.2085 28.3612C17.5241 28.0999 18.8877 28.2346 20.1267 28.7485C21.3657 29.2624 22.4244 30.1322 23.1689 31.248C23.9133 32.3638 24.3101 33.6754 24.3089 35.0167C24.3053 36.812 23.5906 38.5327 22.3211 39.8021C21.0517 41.0716 19.3309 41.7863 17.5357 41.7899Z" fill="currentColor"/>
</svg>
