<?xml version="1.0" encoding="UTF-8"?>
<!DOCTYPE svg PUBLIC "-//W3C//DTD SVG 1.1//EN" "http://www.w3.org/Graphics/SVG/1.1/DTD/svg11.dtd">
<!-- Creator: CorelDRAW -->
<svg xmlns="http://www.w3.org/2000/svg" xml:space="preserve" style="shape-rendering:geometricPrecision; text-rendering:geometricPrecision; image-rendering:optimizeQuality; fill-rule:evenodd; clip-rule:evenodd"
viewBox="0 0 2048 2048"
 xmlns:xlink="http://www.w3.org/1999/xlink">
 <g id="Layer_x0020_1">
  <metadata id="CorelCorpID_0Corel-Layer"/>
  <g id="_466577232">
   <ellipse id="_466579224" fill="currentColor" cx="1023.96" cy="403.818" rx="92.1866" ry="92.1866"/>
   <polygon id="_466578816" fill="currentColor" points="1074.79,463.361 1078.18,463.361 1078.18,1540.89 969.745,1540.89 969.745,463.361 973.141,463.361 "/>
   <g>
    <rect id="_466578480" fill="currentColor" x="737.405" y="1524.89" width="573.117" height="113.737"/>
    <rect id="_466578384" fill="currentColor" x="604.476" y="1622.63" width="838.976" height="113.737"/>
   </g>
   <path id="_466578168" fill="currentColor" fill-rule="nonzero" d="M1092.4 577.451c-16.7126,-7.70788 -36.5091,-0.407481 -44.217,16.3039 -7.70788,16.7126 -0.407481,36.5091 16.3039,44.217 57.3178,26.4768 153.809,64.4434 267.317,82.4162 77.7579,12.313 163.39,15.241 249.864,-1.22008 18.0803,-3.38622 29.9953,-20.7898 26.6091,-38.8701 -3.38504,-18.0791 -20.7886,-29.9941 -38.8689,-26.6079 -78.3024,14.9055 -156.222,12.1937 -227.17,0.959056 -105.614,-16.7232 -196.023,-52.3394 -249.838,-77.1981z"/>
   <path id="_466578504" fill="currentColor" fill-rule="nonzero" d="M983.808 637.802c16.7126,-7.70788 24.0118,-27.5044 16.3039,-44.217 -7.70788,-16.7114 -27.5044,-24.0118 -44.217,-16.3039 -44.9374,20.7791 -115.812,49.2083 -200.346,67.8107 -83.5879,18.3957 -180.176,27.0355 -277.03,8.59843 -18.0803,-3.38622 -35.4839,8.52875 -38.8701,26.6079 -3.38504,18.0803 8.52875,35.4839 26.6091,38.8701 107.202,20.4071 212.792,11.1343 303.639,-8.85946 89.9009,-19.7847 165.734,-50.2288 213.911,-72.5067z"/>
   <path id="_466577760" fill="currentColor" d="M1575.69 1230.56l-216.312 0c0,119.466 96.8457,216.313 216.312,216.313 119.467,0 216.313,-96.8469 216.313,-216.313l-216.313 0z"/>
   <path id="_466578240" fill="currentColor" fill-rule="nonzero" d="M1386.32 1221.3c-5.113,17.648 5.04685,36.104 22.6961,41.217 17.648,5.113 36.1028,-5.04685 41.217,-22.6961l125.454 -433.665 125.454 433.665c5.11418,17.6492 23.5689,27.8091 41.217,22.6961 17.6492,-5.113 27.8091,-23.5689 22.6961,-41.217l-156.604 -541.341c-2.35276,-11.8536 -11.0752,-22.0134 -23.4839,-25.604 -17.7142,-5.12481 -36.2303,5.08229 -41.3551,22.7965l0.115748 0.0330709 -157.408 544.115z"/>
   <path id="_466578000" fill="currentColor" d="M472.313 1230.56l-216.313 0c0,119.466 96.8469,216.313 216.313,216.313 119.466,0 216.313,-96.8469 216.313,-216.313l-216.313 0z"/>
   <path id="_466578216" fill="currentColor" fill-rule="nonzero" d="M282.946 1221.3c-5.113,17.648 5.04685,36.104 22.6961,41.217 17.648,5.113 36.1028,-5.04685 41.217,-22.6961l125.454 -433.665 125.453 433.665c5.11418,17.6492 23.5689,27.8091 41.217,22.6961 17.6492,-5.113 27.8091,-23.5689 22.6961,-41.217l-156.604 -541.341c-2.35276,-11.8536 -11.0752,-22.0134 -23.4839,-25.604 -17.7142,-5.12481 -36.2303,5.08229 -41.3551,22.7965l0.115748 0.0330709 -157.407 544.115z"/>
  </g>
 </g>
 <rect fill="none" width="2048" height="2048"/>
</svg>
