<?xml version="1.0" encoding="UTF-8"?>
<!DOCTYPE svg PUBLIC "-//W3C//DTD SVG 1.1//EN" "http://www.w3.org/Graphics/SVG/1.1/DTD/svg11.dtd">
<!-- Creator: CorelDRAW -->
<svg xmlns="http://www.w3.org/2000/svg" viewBox="0 0 59 59" fill="none">
<path d="M46.126 55.526H46.1254C45.9538 55.6559 45.7575 55.7493 45.5484 55.8005C45.3394 55.8516 45.1221 55.8595 44.9099 55.8235C44.6978 55.7875 44.4952 55.7085 44.3147 55.5913C44.1342 55.4741 43.9796 55.3212 43.8604 55.1421C39.2941 48.363 36.6423 40.4771 36.1846 32.3164C36.1705 32.0773 36.0657 31.8527 35.8915 31.6884C35.7173 31.524 35.4869 31.4325 35.2474 31.4324H24.5505C24.311 31.4325 24.0806 31.5241 23.9064 31.6884C23.7322 31.8527 23.6273 32.0773 23.6133 32.3164C23.1557 40.4771 20.5038 48.363 15.9375 55.1421C15.8251 55.3141 15.6798 55.4624 15.51 55.5783C15.3403 55.6943 15.1493 55.7757 14.9481 55.8178C14.7469 55.86 14.5393 55.8621 14.3373 55.824C14.1353 55.786 13.9427 55.7085 13.7706 55.596C13.5985 55.4836 13.4503 55.3383 13.3343 55.1685C13.2184 54.9988 13.137 54.8078 13.0949 54.6066C13.0527 54.4054 13.0506 54.1978 13.0887 53.9958C13.1267 53.7938 13.2042 53.6012 13.3167 53.4291C17.5238 47.1906 19.99 39.9424 20.4606 32.4326C20.469 32.3044 20.4509 32.1758 20.4076 32.0549C20.3643 31.934 20.2966 31.8232 20.2087 31.7295C20.1209 31.6357 20.0148 31.561 19.8969 31.5099C19.779 31.4588 19.6519 31.4324 19.5235 31.4324H15.6759C15.2608 31.4324 14.8627 31.2675 14.5693 30.9741C14.2758 30.6806 14.1109 30.2825 14.1109 29.8674C14.1109 29.4524 14.2758 29.0543 14.5693 28.7608C14.8627 28.4673 15.2608 28.3024 15.6759 28.3024H19.5608C19.6878 28.3024 19.8135 28.2765 19.9302 28.2265C20.0469 28.1765 20.1523 28.1034 20.24 28.0115C20.3276 27.9196 20.3957 27.8109 20.4402 27.6919C20.4846 27.573 20.5045 27.4463 20.4986 27.3194C20.1812 19.8458 17.9041 12.5871 13.8957 6.27146C13.6802 5.91841 13.6133 5.49444 13.7095 5.09219C13.8056 4.68994 14.0571 4.3421 14.4089 4.12468C14.7608 3.90725 15.1843 3.83791 15.5871 3.9318C15.9899 4.0257 16.3392 4.27519 16.5586 4.62578C20.8996 11.456 23.3513 19.3155 23.6635 27.4025C23.6738 27.6445 23.7771 27.8732 23.9519 28.0409C24.1268 28.2085 24.3596 28.3022 24.6018 28.3024H35.1961C35.4383 28.3023 35.6711 28.2086 35.846 28.0409C36.0208 27.8732 36.1242 27.6445 36.1345 27.4025C36.4466 19.3155 38.8983 11.456 43.2393 4.62577C43.3472 4.45068 43.4886 4.29859 43.6554 4.17818C43.8221 4.05777 44.011 3.97141 44.2112 3.92404C44.4113 3.87667 44.6189 3.86921 44.8219 3.9021C45.0249 3.93499 45.2195 4.00757 45.3945 4.1157C45.5695 4.22384 45.7214 4.36539 45.8416 4.53229C45.9618 4.69918 46.048 4.88813 46.0952 5.08834C46.1423 5.28855 46.1495 5.49609 46.1164 5.6991C46.0833 5.9021 46.0105 6.09659 45.9022 6.27145C41.8938 12.5871 39.6167 19.8458 39.2993 27.3194C39.2934 27.4463 39.3133 27.573 39.3578 27.6919C39.4022 27.8109 39.4703 27.9196 39.558 28.0115C39.6456 28.1033 39.751 28.1765 39.8678 28.2265C39.9845 28.2765 40.1101 28.3023 40.2371 28.3024H44.122C44.5371 28.3024 44.9351 28.4673 45.2286 28.7608C45.5221 29.0543 45.687 29.4524 45.687 29.8674C45.687 30.2825 45.5221 30.6805 45.2286 30.974C44.9351 31.2675 44.5371 31.4324 44.122 31.4324H40.2744C40.1459 31.4324 40.0188 31.4588 39.9009 31.5099C39.7831 31.561 39.6769 31.6357 39.5891 31.7294C39.5013 31.8232 39.4336 31.9339 39.3903 32.0549C39.3469 32.1758 39.3289 32.3044 39.3372 32.4325C39.8079 39.9424 42.2741 47.1906 46.4812 53.4291C46.6995 53.7583 46.7843 54.1583 46.7183 54.5478C46.6524 54.9373 46.4406 55.2871 46.126 55.526Z" fill="currentColor"/>
</svg>
