<?xml version="1.0" encoding="UTF-8"?>
<!DOCTYPE svg PUBLIC "-//W3C//DTD SVG 1.1//EN" "http://www.w3.org/Graphics/SVG/1.1/DTD/svg11.dtd">
<!-- Creator: CorelDRAW -->
<svg xmlns="http://www.w3.org/2000/svg" xml:space="preserve" style="shape-rendering:geometricPrecision; text-rendering:geometricPrecision; image-rendering:optimizeQuality; fill-rule:evenodd; clip-rule:evenodd"
viewBox="0 0 2048 2048"
 xmlns:xlink="http://www.w3.org/1999/xlink">
 <g id="Layer_x0020_1">
  <metadata id="CorelCorpID_0Corel-Layer"/>
  <g id="_274744624">
   <path id="_465080680"  fill="currentColor" fill-rule="nonzero" d="M1739.4 1514.89c-81.3898,133.197 -187.292,269.869 -361.694,249.303 -54.2847,-6.40276 -102.078,-30.3555 -137.928,-74.1178 -33.861,-41.3339 -54.9414,-99.3036 -57.1418,-175.407l-0.333071 -2.3315 0 -396.964 170.499 0 0 396.964 -0.255118 0c1.25315,33.8315 8.23583,56.5784 19.102,69.8434 6.10512,7.45276 14.9327,11.615 25.3713,12.8457 67.1906,7.9252 232.908,-80.204 267.136,-136.219l75.2434 56.0835z"/>
   <polygon id="_465080800"  fill="currentColor" fill-rule="nonzero" points="1464.71,1403.98 1744.31,1420.78 1792,1423.64 1789.14,1471.33 1772.34,1750.92 "/>
   <g>
    <polygon id="_465081016"  fill="currentColor" points="365.11,281.74 255.999,468.378 543.13,468.378 577.934,338.486 "/>
    <rect id="_465081112"  fill="currentColor" x="379.456" y="425.295" width="170.121" height="1019.79"/>
    <polygon id="_465081064"  fill="currentColor" points="549.574,1430.27 614.093,1521.44 464.516,1643.48 314.939,1521.44 379.459,1430.27 "/>
   </g>
   <polygon id="_465082216"  fill="currentColor" points="506.515,488.184 703.191,290.064 968.801,353.235 939.609,520.47 "/>
   <rect id="_465082288"  fill="currentColor" x="769.488" y="425.295" width="170.121" height="1019.79"/>
   <polygon id="_465082072"   fill="currentColor" points="939.607,1430.27 1004.13,1521.44 854.548,1643.48 704.971,1521.44 769.491,1430.27 "/>
   <polygon id="_274347200"   fill="currentColor" oints="919.326,488.184 1116,290.064 1381.61,353.235 1381.61,522.639 "/>
   <rect id="_274938216"  fill="currentColor" x="1182.3" y="425.295" width="170.121" height="1019.79"/>
  </g>
 </g>
 <rect  fill="none"  width="2048" height="2048"/>
</svg>
