<?xml version="1.0" encoding="UTF-8"?>
<!DOCTYPE svg PUBLIC "-//W3C//DTD SVG 1.1//EN" "http://www.w3.org/Graphics/SVG/1.1/DTD/svg11.dtd">
<!-- Creator: CorelDRAW -->
<svg xmlns="http://www.w3.org/2000/svg" xml:space="preserve" style="shape-rendering:geometricPrecision; text-rendering:geometricPrecision; image-rendering:optimizeQuality; fill-rule:evenodd; clip-rule:evenodd"
viewBox="0 0 2048 2048"
 xmlns:xlink="http://www.w3.org/1999/xlink">
 <g id="Layer_x0020_1">
  <metadata id="CorelCorpID_0Corel-Layer"/>
  <g id="_274744672">
   <path id="_274744288"   fill="currentColor" d="M272.915 532.607c26.5736,-39.6012 67.8851,-82.7564 107.146,-109.047 102.015,-68.3127 190.456,-31.7894 249.754,71.6941l0.380315 0.6c59.0953,93.2257 131.329,196.73 214.197,270.444 49.1918,43.7587 111.331,84.6367 179.608,84.6367 68.2772,0 130.416,-40.878 179.608,-84.6367 82.8674,-73.7138 155.101,-177.219 214.197,-270.444l0.377953 -0.597638c34.9429,-61.0004 88.0536,-113.711 163.831,-105.556 31.0796,3.3437 60.1737,16.6158 85.9253,33.8599 39.6827,26.5736 80.1414,69.1583 107.112,108.998l16.95 25.0347 -112.375 76.1634 -16.95 -25.1268c-13.1906,-19.4858 -33.3012,-41.6008 -51.6804,-55.9323 -10.6453,-8.30079 -26.9906,-18.8327 -41.0516,-18.6449 -16.5425,0.220866 -28.2756,17.9882 -35.1945,30.8398l-1.03228 1.91811c-62.1957,115.514 -143.34,233.56 -246.408,316.444 -75.3532,60.5965 -165.008,103.711 -263.309,103.711 -98.3009,0 -187.956,-43.115 -263.309,-103.711 -103.068,-82.8839 -184.212,-200.929 -246.408,-316.444l-1.03228 -1.91811c-6.9189,-12.8516 -18.652,-30.6189 -35.1945,-30.8398 -31.7469,-0.424016 -76.5497,50.654 -92.732,74.5772l-16.95 25.1268 -112.375 -76.1634 16.9158 -24.9862z"/>
   <path id="_274744384"   fill="currentColor"  d="M1024 850.923c107.532,0 209.765,42.3591 285.789,118.383 76.0241,76.0241 118.383,178.257 118.383,285.789 0,107.532 -42.3591,209.765 -118.383,285.789 -76.0241,76.0241 -178.258,118.382 -285.789,118.382 -107.531,0 -209.765,-42.3579 -285.789,-118.382 -76.0241,-76.0241 -118.383,-178.257 -118.383,-285.789 0,-107.532 42.3591,-209.765 118.383,-285.789 76.0241,-76.0241 178.257,-118.383 285.789,-118.383zm189.607 214.565c-50.4697,-50.4709 -118.22,-78.5351 -189.607,-78.5351 -71.3871,0 -139.138,28.0642 -189.607,78.5351 -50.4709,50.4697 -78.5351,118.221 -78.5351,189.607 0,71.3871 28.0642,139.138 78.5351,189.607 50.4697,50.4709 118.22,78.5351 189.607,78.5351 71.3871,0 139.138,-28.0642 189.607,-78.5351 50.4709,-50.4697 78.5351,-118.22 78.5351,-189.607 0,-71.3859 -28.0642,-139.138 -78.5351,-189.607z"/>
  </g>
 </g>
 <rect   fill="none" width="2048" height="2048"/>
</svg>
