<?xml version="1.0" encoding="UTF-8"?>
<!DOCTYPE svg PUBLIC "-//W3C//DTD SVG 1.1//EN" "http://www.w3.org/Graphics/SVG/1.1/DTD/svg11.dtd">
<!-- Creator: CorelDRAW -->
<svg xmlns="http://www.w3.org/2000/svg" viewBox="0 0 59 58" fill="none">
<path d="M47.5804 51.8979L47.5718 51.8943C47.0817 51.6957 46.5782 51.4702 46.0478 51.1921C45.8486 51.095 45.7263 51.0332 45.6114 50.9641C45.4729 50.8805 45.3583 50.7624 45.2788 50.6214C45.1994 50.4804 45.1578 50.3212 45.158 50.1593C45.1582 49.9974 45.2004 49.8384 45.2802 49.6976C45.3601 49.5568 45.475 49.4391 45.6139 49.3558C46.7008 48.694 47.6195 47.7891 48.2977 46.7122C49.2432 45.1666 49.7377 43.3873 49.7252 41.5754C49.7252 36.7448 46.3117 32.8149 42.1159 32.8149C41.0375 32.815 39.9756 33.0789 39.0226 33.5836C38.8795 33.6586 38.7196 33.6953 38.5582 33.6903C38.3968 33.6853 38.2394 33.6387 38.1013 33.5551C37.9632 33.4714 37.8489 33.3536 37.7697 33.2129C37.6904 33.0722 37.6488 32.9134 37.6489 32.752V18.0216C37.6332 16.0352 36.8323 14.1356 35.4209 12.7376C34.7934 12.0961 34.0447 11.5857 33.2183 11.236C32.3918 10.8864 31.5042 10.7044 30.6068 10.7008C28.8312 10.7051 27.1259 11.3957 25.8476 12.6281C25.6727 12.7968 25.4391 12.891 25.1961 12.8909C24.9531 12.8908 24.7196 12.7964 24.5448 12.6275C23.5703 11.7114 22.3553 11.0914 21.0417 10.84C19.7281 10.5885 18.37 10.7159 17.1261 11.2073C16.9898 11.2628 16.8423 11.2854 16.6956 11.2733C16.5489 11.2612 16.4072 11.2148 16.2817 11.1377C16.1563 11.0607 16.0508 10.9552 15.9737 10.8298C15.8966 10.7044 15.8502 10.5627 15.838 10.416C15.7003 8.80228 15.1083 7.26059 14.1307 5.96941C13.153 4.67823 11.8296 3.69037 10.3137 3.1202C10.0789 3.03878 9.82772 3.01627 9.58219 3.05463C9.33666 3.093 9.1043 3.19107 8.90553 3.34024C8.70677 3.48941 8.54767 3.6851 8.44223 3.91014C8.33678 4.13517 8.2882 4.38265 8.30077 4.63085C8.31132 4.96092 8.42061 5.28025 8.6145 5.54757C8.8084 5.8149 9.078 6.01795 9.38848 6.13049C10.38 6.53161 11.2284 7.22079 11.8243 8.10901C12.4201 8.99723 12.736 10.0437 12.7311 11.1132V39.9109C12.7315 40.3257 12.8964 40.7233 13.1897 41.0166C13.483 41.3099 13.8807 41.4749 14.2955 41.4753C14.5008 41.4777 14.7045 41.4387 14.8943 41.3606C15.0841 41.2824 15.2563 41.1668 15.4004 41.0206C15.5468 40.8754 15.6628 40.7025 15.7417 40.5119C15.8206 40.3214 15.8608 40.1171 15.8599 39.9109V17.8591C15.845 16.8748 16.1953 15.92 16.8431 15.1788C17.4908 14.4376 18.3902 13.9626 19.3676 13.8455C19.9032 13.7913 20.4443 13.8514 20.955 14.0218C21.4657 14.1923 21.9344 14.4692 22.3302 14.8342C22.7279 15.1975 23.0456 15.6396 23.2632 16.1324C23.4807 16.6252 23.5934 17.1579 23.5939 17.6965V39.9109C23.6004 40.3281 23.7707 40.7261 24.0681 41.0189C24.3654 41.3116 24.766 41.4757 25.1833 41.4757C25.6006 41.4757 26.0012 41.3116 26.2986 41.0189C26.5959 40.7261 26.7662 40.3281 26.7728 39.9109V17.8719C26.7614 16.8939 27.1074 15.9453 27.7458 15.2043C28.3842 14.4633 29.2711 13.9807 30.2401 13.8473C30.7796 13.7916 31.3247 13.8495 31.8404 14.0175C32.3562 14.1854 32.8309 14.4595 33.2342 14.8222C33.6375 15.1849 33.9603 15.628 34.1817 16.1231C34.4032 16.6182 34.5185 17.1542 34.5201 17.6965V41.6128C34.5016 43.4005 34.9929 45.1565 35.9367 46.675C35.986 46.7356 36.0286 46.8014 36.0637 46.8712C36.7191 47.9088 37.5136 48.8517 38.425 49.6736C38.5349 49.7759 38.6187 49.9031 38.6693 50.0444C38.7199 50.1858 38.7359 50.3372 38.7159 50.486C38.6959 50.6348 38.6405 50.7766 38.5544 50.8996C38.4682 51.0226 38.3539 51.1231 38.2209 51.1928C37.6776 51.4771 37.1186 51.7301 36.5465 51.9506C36.2344 52.068 35.9696 52.2849 35.793 52.5677C35.6163 52.8505 35.5375 53.1835 35.5688 53.5155C35.5859 53.7607 35.6604 53.9984 35.7863 54.2094C35.9122 54.4204 36.0859 54.5989 36.2935 54.7304C36.4877 54.8569 36.7089 54.936 36.9392 54.9613C37.1696 54.9865 37.4026 54.9572 37.6196 54.8758C39.0187 54.3333 40.365 53.6636 41.6418 52.8751C41.7894 52.7847 41.9593 52.7372 42.1324 52.7378C42.3055 52.7385 42.475 52.7873 42.6219 52.8788C43.8964 53.6724 45.2447 54.341 46.6478 54.8753C46.8813 54.9527 47.1299 54.9739 47.3732 54.937C47.6165 54.9001 47.8476 54.8062 48.0477 54.663C48.2478 54.5197 48.4111 54.3312 48.5245 54.1128C48.6378 53.8944 48.6979 53.6523 48.6998 53.4062C48.6834 53.0722 48.5683 52.7506 48.369 52.4821C48.1698 52.2136 47.8953 52.0103 47.5804 51.8979ZM42.116 47.2072C41.4812 47.1862 40.8601 47.0181 40.3014 46.7161C39.7428 46.4141 39.2619 45.9864 38.8968 45.4668C38.8216 45.3736 38.7556 45.2734 38.7 45.1674C38.0013 44.1145 37.6352 42.8761 37.6489 41.6127C37.6489 38.5223 39.6949 35.9436 42.116 35.9436C44.586 35.9436 46.5965 38.4698 46.5965 41.5753C46.5965 44.6808 44.586 47.2073 42.116 47.2073V47.2072Z" fill="currentColor"/>
</svg>
