<svg xmlns="http://www.w3.org/2000/svg" viewBox="0 0 24 25" fill="none">
<path d="M14.4494 12.099C14.6191 12.2629 14.8465 12.3536 15.0824 12.3516C15.3184 12.3495 15.5442 12.2549 15.711 12.088C15.8779 11.9211 15.9725 11.6954 15.9746 11.4594C15.9766 11.2234 15.8859 10.9961 15.722 10.8264L12.2726 7.37696L15.722 3.92816C15.8908 3.7594 15.9857 3.53048 15.9858 3.29177C15.9858 3.05305 15.891 2.82409 15.7223 2.65526C15.5535 2.48642 15.3246 2.39154 15.0859 2.39148C14.8472 2.39142 14.6182 2.4862 14.4494 2.65496L11.9 5.20436V3.29156C11.9 3.05286 11.8052 2.82394 11.6364 2.65516C11.4676 2.48638 11.2387 2.39156 11 2.39156C10.7613 2.39156 10.5324 2.48638 10.3636 2.65516C10.1948 2.82394 10.1 3.05286 10.1 3.29156V15.264C7.74919 15.5538 6.01459 16.9566 6.01459 18.699C6.01459 20.6574 8.20459 22.1916 11 22.1916C13.7954 22.1916 15.9854 20.6574 15.9854 18.699C15.9854 16.959 14.2508 15.5538 11.9 15.264V9.54956L14.4494 12.099ZM14.1854 18.699C14.1854 19.4982 12.8234 20.3916 11 20.3916C9.17659 20.3916 7.81459 19.4982 7.81459 18.699C7.81459 17.8998 9.17659 17.0064 11 17.0064C12.8234 17.0064 14.1854 17.9004 14.1854 18.699Z" fill="currentColor"/>
</svg>