
<svg xmlns="http://www.w3.org/2000/svg" version="1.1" viewBox="-5.0 -10.0 110.0 135.0">
    <g fill='currentColor' fill-rule="evenodd">
    <path d="m50 12.5c-20.711 0-37.5 16.789-37.5 37.5s16.789 37.5 37.5 37.5 37.5-16.789 37.5-37.5-16.789-37.5-37.5-37.5zm-45.832 37.5c0-25.312 20.52-45.832 45.832-45.832s45.832 20.52 45.832 45.832-20.52 45.832-45.832 45.832-45.832-20.52-45.832-45.832z"/>
    <path d="m17.59 82.41c-1.625-1.6289-1.625-4.2656 0-5.8945l58.926-58.926c1.6289-1.625 4.2656-1.625 5.8945 0 1.625 1.6289 1.625 4.2656 0 5.8945l-58.926 58.926c-1.6289 1.625-4.2656 1.625-5.8945 0z"/>
    <path d="m82.41 82.41c1.625-1.6289 1.625-4.2656 0-5.8945l-58.926-58.926c-1.6289-1.625-4.2656-1.625-5.8945 0-1.625 1.6289-1.625 4.2656 0 5.8945l58.926 58.926c1.6289 1.625 4.2656 1.625 5.8945 0z"/>
    <path d="m4.168 50c0-2.3008 1.8633-4.168 4.1641-4.168h83.336c2.3008 0 4.1641 1.8672 4.1641 4.168s-1.8633 4.168-4.1641 4.168h-83.336c-2.3008 0-4.1641-1.8672-4.1641-4.168z"/>
    <path d="m50 45.832c2.3008 0 4.168 1.8672 4.168 4.168v41.668c0 2.3008-1.8672 4.1641-4.168 4.1641s-4.168-1.8633-4.168-4.1641v-41.668c0-2.3008 1.8672-4.168 4.168-4.168z"/>
    <path d="m50 12.5c-1.1523 0-2.082 0.93359-2.082 2.082 0.003906 0.023438 0.10938 0.70703 0.69922 2.2461 0.37891 0.98438 0.85937 2.0898 1.3828 3.2109 0.52344-1.1211 1.0039-2.2266 1.3828-3.2109 0.58984-1.5391 0.69531-2.2227 0.69922-2.2461 0-1.1484-0.92969-2.082-2.082-2.082zm0 16.668-3.6328 2.0391-0.023438-0.039062-0.054688-0.10156c-0.050781-0.089844-0.12109-0.21875-0.21094-0.37891-0.17578-0.32422-0.42969-0.78516-0.73047-1.3516-0.60156-1.1289-1.4102-2.6758-2.2188-4.3438-0.80469-1.6562-1.6445-3.4922-2.293-5.1836-0.57031-1.4922-1.2539-3.5-1.2539-5.2266 0-5.75 4.6641-10.414 10.418-10.414s10.418 4.6641 10.418 10.414c0 1.7266-0.68359 3.7344-1.2539 5.2266-0.64844 1.6914-1.4883 3.5273-2.293 5.1836-0.80859 1.668-1.6172 3.2148-2.2188 4.3438-0.30078 0.56641-0.55469 1.0273-0.73047 1.3516-0.089844 0.16016-0.16016 0.28906-0.21094 0.37891l-0.054688 0.10156-0.019531 0.035156s-0.003907 0.003906-3.6367-2.0352zl3.6328 2.0391c-0.73828 1.3125-2.125 2.125-3.6328 2.125s-2.8945-0.8125-3.6328-2.125z"/>
    </g>
 </svg>