<svg xmlns="http://www.w3.org/2000/svg" viewBox="0 0 23 22" fill="none">
<path d="M17.4152 6.41256H14.2894L16.5994 4.30422C16.6968 4.22599 16.7772 4.12867 16.8356 4.01823C16.8941 3.90779 16.9293 3.78657 16.9392 3.66202C16.9491 3.53746 16.9334 3.4122 16.8931 3.29393C16.8528 3.17566 16.7888 3.06687 16.7049 2.97425C16.6211 2.88163 16.5192 2.80713 16.4055 2.75532C16.2918 2.70352 16.1687 2.67551 16.0437 2.67301C15.9188 2.67051 15.7947 2.69357 15.679 2.74079C15.5633 2.788 15.4585 2.85836 15.371 2.94756L12.8319 5.25756V2.74589C12.8319 2.50278 12.7353 2.26962 12.5634 2.09771C12.3915 1.9258 12.1583 1.82922 11.9152 1.82922C11.6721 1.82922 11.4389 1.9258 11.267 2.09771C11.0951 2.26962 10.9985 2.50278 10.9985 2.74589V5.25756L8.45937 2.94756C8.27713 2.80121 8.04587 2.73 7.81288 2.7485C7.57988 2.76699 7.36275 2.87378 7.20588 3.04704C7.04901 3.22031 6.96424 3.44695 6.96892 3.68063C6.9736 3.91431 7.06736 4.13738 7.23104 4.30422L9.54104 6.41256H6.4152C6.17209 6.41256 5.93893 6.50913 5.76702 6.68104C5.59511 6.85295 5.49854 7.08611 5.49854 7.32922C5.49854 7.57234 5.59511 7.8055 5.76702 7.9774C5.93893 8.14931 6.17209 8.24589 6.4152 8.24589H9.54104L7.23104 10.3542C7.1068 10.4806 7.02187 10.6404 6.98655 10.8141C6.95122 10.9877 6.96701 11.168 7.032 11.3329C7.09699 11.4978 7.2084 11.6403 7.35273 11.7432C7.49706 11.8461 7.66812 11.9049 7.8452 11.9126C8.07239 11.912 8.29125 11.827 8.45937 11.6742L10.9985 9.40089V15.5792H10.0819C9.83875 15.5792 9.6056 15.6758 9.43369 15.8477C9.26178 16.0196 9.1652 16.2528 9.1652 16.4959C9.1652 16.739 9.26178 16.9722 9.43369 17.1441C9.6056 17.316 9.83875 17.4126 10.0819 17.4126H10.9985V19.2459C10.9985 19.489 11.0951 19.7222 11.267 19.8941C11.4389 20.066 11.6721 20.1626 11.9152 20.1626C12.1583 20.1626 12.3915 20.066 12.5634 19.8941C12.7353 19.7222 12.8319 19.489 12.8319 19.2459V17.4126H13.7485C13.9917 17.4126 14.2248 17.316 14.3967 17.1441C14.5686 16.9722 14.6652 16.739 14.6652 16.4959C14.6652 16.2528 14.5686 16.0196 14.3967 15.8477C14.2248 15.6758 13.9917 15.5792 13.7485 15.5792H12.8319V9.40089L15.371 11.7109C15.5392 11.8637 15.758 11.9486 15.9852 11.9492C16.17 11.9487 16.3504 11.8924 16.5026 11.7876C16.6548 11.6828 16.7718 11.5344 16.8383 11.362C16.9047 11.1895 16.9174 11.001 16.8748 10.8211C16.8321 10.6413 16.7361 10.4785 16.5994 10.3542L14.2894 8.24589H17.4152C17.6583 8.24589 17.8915 8.14931 18.0634 7.9774C18.2353 7.8055 18.3319 7.57234 18.3319 7.32922C18.3319 7.08611 18.2353 6.85295 18.0634 6.68104C17.8915 6.50913 17.6583 6.41256 17.4152 6.41256Z" fill="currentColor"/>
</svg>