<svg xmlns="http://www.w3.org/2000/svg" viewBox="0 0 25 26" fill="none">
<path fill-rule="evenodd" clip-rule="evenodd" d="M19.8392 16.9681V2.50377C19.8392 1.93124 20.2974 1.46817 20.8719 1.46817C21.4425 1.46817 21.9055 1.92154 21.9055 2.50377V23.1651C21.9055 23.7377 21.4473 24.2007 20.8719 24.2007C20.3013 24.2007 19.8392 23.7474 19.8392 23.1651V19.0345H4.33915C3.76856 19.0345 3.30549 18.5762 3.30549 18.0008C3.30549 17.4302 3.77533 16.9681 4.33915 16.9681H9.50549C11.7879 16.9681 13.6392 15.1168 13.6392 12.8344C13.6392 10.552 11.7879 8.70077 9.50549 8.70077C7.2231 8.70077 5.37183 10.552 5.37183 12.8344C5.37183 13.405 4.90973 13.8681 4.33913 13.8681C3.76853 13.8681 3.30547 13.405 3.30547 12.8344C3.30547 9.4098 6.08083 6.63443 9.50547 6.63443C12.9301 6.63443 15.7055 9.4098 15.7055 12.8344C15.7055 14.4222 15.1087 15.8704 14.1264 16.9681L19.8392 16.9681Z" fill="currentColor"/>
</svg>