
<svg xmlns="http://www.w3.org/2000/svg" xmlns:xlink="http://www.w3.org/1999/xlink" version="1.1" x="0px" y="0px" viewBox="0 0 512 640" enable-background="new 0 0 512 512" xml:space="preserve">
<path fill="currentColor" d="M255.969,170.672c0-56.547,45.844-102.391,102.406-102.391  c21.062,0,40.656,6.359,56.938,17.281C385.828,34.422,330.609,0,267.359,0C173.094,0,96.688,76.406,96.688,170.672  c0,87.078,65.219,158.922,149.453,169.359v86.641h-64c-5.891,0-10.672,4.766-10.672,10.672c0,5.891,4.781,10.656,10.672,10.656h64  v53.344c0,5.891,4.766,10.656,10.672,10.656c5.891,0,10.656-4.766,10.656-10.656V448h64c5.906,0,10.672-4.766,10.672-10.656  c0-5.906-4.766-10.672-10.672-10.672h-64v-85.328c63.219-0.047,118.375-34.453,147.844-85.547  c-16.281,10.922-35.875,17.281-56.938,17.281C301.812,273.078,255.969,227.219,255.969,170.672z"/>
</svg>