<svg xmlns="http://www.w3.org/2000/svg" viewBox="0 0 29 29" fill="none">
<path d="M22.2736 10.7767C22.2671 9.05928 21.7155 7.3882 20.6982 6.00441L21.9724 4.60283C22.0851 4.49226 22.174 4.35982 22.2337 4.21364C22.2933 4.06746 22.3225 3.91063 22.3193 3.75278C22.3162 3.59492 22.2808 3.43938 22.2153 3.2957C22.1499 3.15202 22.0557 3.02325 21.9387 2.91728C21.8216 2.81131 21.6842 2.73038 21.5347 2.67948C21.3853 2.62857 21.227 2.60875 21.0696 2.62125C20.9122 2.63374 20.759 2.67827 20.6195 2.75212C20.4799 2.82596 20.3569 2.92756 20.2581 3.05066L19.0997 4.348C17.6944 3.25844 15.9666 2.66713 14.1884 2.66713C12.4102 2.66713 10.6824 3.25844 9.27707 4.348L8.11874 3.05066C7.91291 2.81719 7.62276 2.67504 7.31212 2.65548C7.00148 2.63593 6.6958 2.74058 6.46232 2.94641C6.22884 3.15224 6.08669 3.44239 6.06714 3.75303C6.04759 4.06367 6.15224 4.36935 6.35807 4.60283L7.62065 6.00441C6.8119 7.1329 6.30646 8.45015 6.15275 9.82998C5.99904 11.2098 6.2022 12.606 6.74279 13.8848C7.28337 15.1636 8.14326 16.2822 9.24009 17.1334C10.3369 17.9846 11.6339 18.5399 13.0069 18.7461V20.0434H11.8486C11.5414 20.0434 11.2467 20.1655 11.0295 20.3827C10.8123 20.5999 10.6902 20.8945 10.6902 21.2017C10.6902 21.509 10.8123 21.8036 11.0295 22.0208C11.2467 22.238 11.5414 22.3601 11.8486 22.3601H13.0069V24.6767C13.0069 24.984 13.1289 25.2786 13.3462 25.4958C13.5634 25.713 13.858 25.8351 14.1652 25.8351C14.4724 25.8351 14.7671 25.713 14.9843 25.4958C15.2015 25.2786 15.3236 24.984 15.3236 24.6767V22.3601H16.4819C16.7891 22.3601 17.0837 22.238 17.301 22.0208C17.5182 21.8036 17.6402 21.509 17.6402 21.2017C17.6402 20.8945 17.5182 20.5999 17.301 20.3827C17.0837 20.1655 16.7891 20.0434 16.4819 20.0434H15.3236V18.7924C17.2517 18.5141 19.0152 17.5509 20.2915 16.079C21.5677 14.6071 22.2713 12.7249 22.2736 10.7767ZM8.37357 10.7767C8.37357 9.63126 8.71324 8.5115 9.34964 7.55907C9.98604 6.60664 10.8906 5.8643 11.9489 5.42595C13.0071 4.98759 14.1717 4.87289 15.2951 5.09637C16.4186 5.31984 17.4506 5.87144 18.2606 6.68142C19.0705 7.4914 19.6221 8.52338 19.8456 9.64685C20.0691 10.7703 19.9544 11.9348 19.516 12.9931C19.0777 14.0514 18.3353 14.9559 17.3829 15.5923C16.4305 16.2287 15.3107 16.5684 14.1652 16.5684C12.6292 16.5684 11.1561 15.9582 10.0699 14.8721C8.98376 13.7859 8.37357 12.3128 8.37357 10.7767Z" fill="currentColor"/>
</svg>