<svg xmlns="http://www.w3.org/2000/svg" viewBox="0 0 28 29" fill="none">
<path d="M25.0679 7.45681L22.5974 4.98631C22.4997 4.88966 22.3835 4.81256 22.2564 4.75934L22.239 4.755V4.75391C22.1185 4.70613 21.9903 4.68116 21.86 4.68116C21.7308 4.68116 21.6016 4.70613 21.481 4.75391L21.4647 4.75826V4.75934C21.3366 4.81147 21.2204 4.88966 21.1227 4.98631L18.6522 7.45681C18.2569 7.86513 18.2623 8.5156 18.6641 8.91847C19.067 9.32027 19.7164 9.32569 20.1258 8.93042L20.8208 8.23867V9.84585C20.8208 13.032 18.2677 15.673 14.9514 16.1389V8.23873L15.6464 8.93048C15.8407 9.13137 16.1079 9.24648 16.387 9.24865C16.6671 9.25082 16.9354 9.14114 17.1341 8.94349C17.3317 8.74584 17.4414 8.47653 17.4393 8.19744C17.436 7.91728 17.322 7.65123 17.1211 7.45683L14.6441 4.98632C14.5463 4.88967 14.4301 4.81257 14.302 4.75936L14.2857 4.75502V4.75393C14.1651 4.70615 14.0359 4.68117 13.9056 4.68117C13.7753 4.68117 13.6472 4.70615 13.5266 4.75393L13.5103 4.75828L13.5092 4.75936C13.3822 4.81257 13.266 4.88967 13.1682 4.98632L10.6977 7.45683C10.3024 7.86515 10.3079 8.51562 10.7097 8.91849C11.1126 9.32029 11.7631 9.32571 12.1713 8.93044L12.8663 8.23869V16.1378C9.54981 15.6719 6.99694 13.032 6.99694 9.8447V8.23861L7.69194 8.93036C8.10135 9.32564 8.75181 9.32019 9.1536 8.91841C9.5554 8.51553 9.56193 7.86504 9.16663 7.45674L6.6896 4.98624C6.59187 4.88959 6.47567 4.8114 6.3486 4.75928L6.33014 4.75385C6.20961 4.70607 6.08038 4.68109 5.95115 4.68109C5.82083 4.68109 5.69269 4.70607 5.57215 4.75385L5.55477 4.75819V4.75928C5.42772 4.81249 5.31152 4.88959 5.21378 4.98624L2.74328 7.45674C2.33606 7.86396 2.33606 8.52421 2.74328 8.93145C3.15049 9.33758 3.81074 9.33758 4.21798 8.93036L4.90865 8.23862V9.84579C4.90865 14.1776 8.39226 17.7546 12.8631 18.2422V20.3131L11.2711 20.3142C10.6955 20.3142 10.2286 20.7811 10.2286 21.3567C10.2286 21.9322 10.6955 22.3992 11.2711 22.3992H12.8631V23.3559C12.8631 23.9314 13.33 24.3984 13.9056 24.3984C14.4811 24.3984 14.9481 23.9314 14.9481 23.3559V22.3992H16.5401C17.1156 22.3992 17.5826 21.9322 17.5826 21.3567C17.5826 20.7811 17.1156 20.3142 16.5401 20.3142H14.9481V18.2433C19.4189 17.7568 22.9025 14.1787 22.9025 9.84687V8.23859L23.5931 8.93034C24.0004 9.33755 24.6606 9.33755 25.0678 8.93142C25.2633 8.73596 25.373 8.46989 25.373 8.19408C25.373 7.91717 25.2633 7.65221 25.0678 7.45674L25.0679 7.45681Z" fill="currentColor"/>
</svg>