<svg xmlns="http://www.w3.org/2000/svg" viewBox="0 0 24 25" fill="none">
<path d="M2.00001 18.7702C2.00001 19.6985 2.36876 20.5887 3.02513 21.2451C3.68151 21.9015 4.57175 22.2702 5.50001 22.2702C6.42827 22.2702 7.3185 21.9015 7.97488 21.2451C8.63126 20.5887 9.00001 19.6985 9.00001 18.7702C8.99726 18.4802 8.96034 18.1915 8.89001 17.9102C8.84726 17.7436 8.79382 17.5799 8.73001 17.4202C8.73001 17.4202 8.68001 17.3202 8.65001 17.2602L8.50001 16.9702L8.38001 16.8002L8.21001 16.5602L8.07001 16.4002L7.86001 16.1902L7.70001 16.0602C7.62783 15.9947 7.55096 15.9345 7.47001 15.8802L7.29001 15.7702C7.20686 15.7143 7.11999 15.6642 7.03001 15.6202L6.85001 15.5402L6.53001 15.4302L6.37001 15.3802L6.32001 15.3802C5.44714 14.1852 4.9841 12.74 5.00001 11.2602C5.00001 9.40369 5.73751 7.62321 7.05026 6.31045C8.36301 4.9977 10.1435 4.2602 12 4.2602C13.8565 4.2602 15.637 4.9977 16.9498 6.31045C18.2625 7.62321 19 9.40368 19 11.2602C19.0116 12.7331 18.5488 14.1707 17.68 15.3602L17.52 15.4102L17.2 15.5202L17 15.6202L16.73 15.7702L16.56 15.8802C16.4687 15.9332 16.3818 15.9934 16.3 16.0602L16.14 16.1902L15.93 16.4002L15.79 16.5602L15.61 16.8002C15.5769 16.8591 15.5402 16.9159 15.5 16.9702C15.4426 17.0628 15.3924 17.1598 15.35 17.2602C15.3195 17.308 15.2927 17.3582 15.27 17.4102C15.2062 17.5699 15.1527 17.7336 15.11 17.9002C15.0389 18.1848 15.002 18.4769 15 18.7702C14.9986 19.4015 15.168 20.0215 15.4902 20.5644C15.8125 21.1073 16.2756 21.553 16.8305 21.8541C17.3853 22.1553 18.0114 22.3008 18.6422 22.2751C19.273 22.2495 19.8852 22.0537 20.4138 21.7084C20.9424 21.3632 21.3678 20.8815 21.6449 20.3142C21.922 19.7469 22.0405 19.1152 21.9878 18.4861C21.9351 17.8569 21.7133 17.2537 21.3457 16.7404C20.9782 16.2271 20.4786 15.8227 19.9 15.5702C20.557 14.3664 20.9302 13.0283 20.9911 11.6583C21.052 10.2882 20.799 8.92229 20.2514 7.66493C19.7038 6.40757 18.8761 5.29198 17.8315 4.40337C16.7869 3.51476 15.553 2.87663 14.2241 2.53772C12.8952 2.19882 11.5064 2.16809 10.1638 2.44789C8.82122 2.72769 7.56034 3.31062 6.47745 4.15216C5.39456 4.9937 4.51831 6.07159 3.91562 7.3035C3.31294 8.53541 2.99976 9.88877 3.00001 11.2602C2.99895 12.7633 3.3773 14.2423 4.10001 15.5602C3.47473 15.8317 2.94265 16.2804 2.56945 16.8508C2.19626 17.4213 1.9983 18.0885 2.00001 18.7702ZM18.5 20.2602C18.1039 20.2602 17.7239 20.1035 17.4429 19.8244C17.1618 19.5453 17.0026 19.1663 17 18.7702C16.9867 18.6439 16.9867 18.5165 17 18.3902C17.0681 18.0985 17.223 17.8343 17.4444 17.6325C17.6658 17.4308 17.9432 17.3009 18.24 17.2602L18.5 17.2602C18.8978 17.2602 19.2794 17.4182 19.5607 17.6995C19.842 17.9808 20 18.3624 20 18.7602C20 19.158 19.842 19.5396 19.5607 19.8209C19.2794 20.1022 18.8978 20.2602 18.5 20.2602ZM5.50001 20.2602C5.10218 20.2602 4.72065 20.1022 4.43935 19.8209C4.15804 19.5396 4.00001 19.158 4.00001 18.7602C4.00001 18.3624 4.15804 17.9808 4.43935 17.6995C4.72065 17.4182 5.10218 17.2602 5.50001 17.2602L5.67001 17.2602C5.78497 17.2742 5.89663 17.308 6.00001 17.3602L6.14001 17.3602C6.23695 17.405 6.3277 17.4621 6.41001 17.5302C6.45017 17.5475 6.48731 17.5712 6.52001 17.6002C6.6038 17.6775 6.67769 17.7648 6.74001 17.8602L6.80001 17.9302C6.88017 18.0607 6.94081 18.2022 6.98001 18.3502C7.00297 18.4889 7.00968 18.6299 7.00001 18.7702C6.99737 19.1663 6.83817 19.5453 6.55715 19.8244C6.27613 20.1035 5.89611 20.2602 5.50001 20.2602Z" fill="currentColor"/>
</svg>