<svg xmlns="http://www.w3.org/2000/svg" viewBox="0 0 25 25" fill="none">
<path d="M17.2769 7.96854C17.3706 7.87558 17.445 7.76498 17.4958 7.64312C17.5466 7.52126 17.5727 7.39056 17.5727 7.25854C17.5727 7.12653 17.5466 6.99583 17.4958 6.87397C17.445 6.75211 17.3706 6.64151 17.2769 6.54854L13.2769 2.54854C13.1839 2.45482 13.0733 2.38042 12.9515 2.32965C12.8296 2.27888 12.6989 2.25275 12.5669 2.25275C12.4349 2.25275 12.3042 2.27888 12.1823 2.32965C12.0605 2.38042 11.9499 2.45482 11.8569 2.54854L7.85689 6.54854C7.76317 6.64151 7.68877 6.75211 7.638 6.87397C7.58723 6.99583 7.5611 7.12653 7.5611 7.25854C7.5611 7.39056 7.58723 7.52126 7.638 7.64312C7.68877 7.76498 7.76317 7.87558 7.85689 7.96854L11.5669 11.6685V17.2585H9.56689C9.30168 17.2585 9.04732 17.3639 8.85979 17.5514C8.67225 17.739 8.56689 17.9933 8.56689 18.2585C8.56689 18.5238 8.67225 18.7781 8.85979 18.9657C9.04732 19.1532 9.30168 19.2585 9.56689 19.2585H11.5669V21.2585C11.5669 21.5238 11.6723 21.7781 11.8598 21.9657C12.0473 22.1532 12.3017 22.2585 12.5669 22.2585C12.8321 22.2585 13.0865 22.1532 13.274 21.9657C13.4615 21.7781 13.5669 21.5238 13.5669 21.2585V19.2585H15.5669C15.8321 19.2585 16.0865 19.1532 16.274 18.9657C16.4615 18.7781 16.5669 18.5238 16.5669 18.2585C16.5669 17.9933 16.4615 17.739 16.274 17.5514C16.0865 17.3639 15.8321 17.2585 15.5669 17.2585H13.5669V11.6685L17.2769 7.96854ZM12.5669 4.66854L15.1569 7.25854L12.5669 9.84855L9.97689 7.25854L12.5669 4.66854Z" fill="currentColor"/>
</svg>