
<svg xmlns="http://www.w3.org/2000/svg" version="1.1" viewBox="-5.0 -10.0 110.0 135.0">
 <path fill="currentColor" d="m84.25 15.75c-12.234-12.238-30.07-17.02-46.785-12.539-16.719 4.4805-29.773 17.535-34.254 34.254-4.4805 16.715 0.30078 34.551 12.535 46.785h0.003906c12.234 12.238 30.07 17.02 46.785 12.539 16.719-4.4805 29.773-17.535 34.254-34.254 4.4805-16.715-0.30078-34.551-12.535-46.785zm-14.562 3.2656-19.688 22.164-19.688-22.164c5.8828-3.75 12.715-5.7383 19.688-5.7383s13.805 1.9883 19.688 5.7344zm-56.406 30.984c-0.007812-8.457 2.918-16.656 8.2773-23.199l20.605 23.199-20.609 23.199c-5.3555-6.543-8.2812-14.742-8.2734-23.199zm17.039 30.984 19.68-22.164 19.688 22.164c-5.8828 3.75-12.715 5.7383-19.688 5.7383s-13.805-1.9883-19.688-5.7383zm48.129-7.7852-20.613-23.199 20.605-23.199h0.003906c5.3516 6.5469 8.2773 14.742 8.2773 23.199s-2.9258 16.652-8.2773 23.199z"/>
</svg>